<svg xmlns="http://www.w3.org/2000/svg" viewBox="0 0 388.73 419.93"><g id="feet"><g id="g5698"><path id="path5662" d="M253.58,8.19c-20.22,0-28.35.59-36.6,2.67-10.72,2.71-18.6,9.82-23.35,21.06-2.76,6.56-4.31,13.65-7.19,32.94-.7,4.68-1.69,10.26-2.19,12.41s-1.37,8-1.94,13.13c-1.45,13-2.36,20.23-3.22,25.38l-.74,4.44,1.76,2.76c5.36,8.38,6.59,17.88,5.09,39.19-.95,13.49-.17,21.6,2.75,28.6.89,2.13,1.58,3.11,2.31,3.27.57.13,14.39,1.55,30.72,3.15s31.1,3.23,32.84,3.61c6.44,1.41,10.86.78,14.1-2,2.34-2,3.61-4.36,6.08-11.32,4-11.28,7.19-14.49,17.9-18.08,2.47-.82,8.44-3,13.25-4.88,12.35-4.76,59.26-24.29,59.9-24.93.29-.29,1.22-5.13,2.06-10.75,2.09-13.88,4.76-27.83,9.33-48.66,5.6-25.53,5.57-25.33,5.55-36s-.81-14.75-3.83-19.46c-3.44-5.39-7.65-7-24.09-9-43.24-5.39-71.45-7.5-100.49-7.52ZM393.65,27.55a3.11,3.11,0,0,0-1.44.26c-1.78.81-3,4.07-3.39,8.85-.16,2.26-2.13,14.4-4.38,27s-6.05,34-8.47,47.68-4.51,25.37-4.67,26c-.36,1.5.1,1.09,1.17-1,1.32-2.64,2.44-3,9.08-2.54,8.79.55,10.4.46,11.44-.6,2.95-3,7.83-21.17,11-40.82,1-6.23,5.09-33.48,5.09-33.87a10.67,10.67,0,0,1,1.46-2.14c1.76-2.21,1.91-4.62.55-8.58-3.43-10-12.33-20-17.4-20.21ZM173.43,123c-2.19-.1-6.12.49-16.2,2.37-3.74.69-11.94,2.16-18.2,3.25C91.08,137,51.72,147.91,39.62,156.24a12.48,12.48,0,0,0-3.82,4.56c-1.53,2.82-1.67,3.42-1.67,7.25s.13,4.39,1.47,6.56c2.94,4.75,9.24,6.88,12.72,4.31a13.76,13.76,0,0,0,3.8-5.95c.31-1,.15-1-1.91.59a16.1,16.1,0,0,1-4.14,2.29,3.4,3.4,0,0,1-3.51-.37c-6.16-3.54-4.09-17.16,2.81-18.46,7.26-1.36,18.46,7.9,22.79,18.85,2,5,2.75,9,3,16,.31,7.57-.35,13.51-3,27-.94,4.81-1.71,9.13-1.71,9.6,0,1.12,0,1.12,3.78-.79,8.63-4.35,28.91-9.73,56.31-14.94,29.78-5.66,46.45-11.19,54.86-18.18,3.47-2.88,3.82-3.69,2.76-6.44-1.88-4.91-2.32-14.79-1.41-32.1.76-14.52-.35-23.11-3.8-29.52-1.42-2.63-1.94-3-4.73-3.45a6.61,6.61,0,0,0-.83-.07Zm212.06,16.61c-7.19-.08-15.24,2.26-19.71,6.3-2.52,2.27-5,3.32-36.78,15.78-26.69,10.45-47.4,20.24-50.52,23.89-2.71,3.17-4,7.18-4,12.62,0,4,.17,5,1.37,7.54,2,4.3,4.71,6.84,8.6,8.08,1.71.55,5.24,0,7.55-1.07a47.07,47.07,0,0,0,5.35-3.4c8.52-6.15,24-13.88,49.3-24.58,39.18-16.6,55.64-24.6,56.41-27.44a14.47,14.47,0,0,0-.74-8.52,20.51,20.51,0,0,0-8-7.53,22.87,22.87,0,0,0-8.86-1.67Zm16.95,22.07a3.24,3.24,0,0,0-1,.55c-5.6,3.76-19.23,10.12-48.91,22.83-8,3.42-16.6,7.15-19.13,8.27a292.9,292.9,0,0,0-28.56,14.25c-2.64,1.57-10.63,6.94-11.1,7.45s-.19.49.22.13c.67-.58,6.14-4.12,9.14-5.92,12.63-7.55,26.2-13.88,53.69-25,25.38-10.31,31.09-12.76,39.12-16.77l3.28-1.65,1.35-1.49a8.12,8.12,0,0,0,1.86-2.61ZM57.16,165a1.68,1.68,0,0,0,.19.69c.35.82.33,1.45,0,1.84s-.29.35.91,1.63c5.58,6,8.34,15.73,7.74,27.42a76.79,76.79,0,0,1-2.33,15.21c-2.43,9.59-6.64,18.85-10.76,23.69a4.57,4.57,0,0,0-.82,1.13,56,56,0,0,0,5.35-4.8,13.62,13.62,0,0,0,3.54-5.2,78.83,78.83,0,0,0,6.89-22.68,44.12,44.12,0,0,0,.38-7.34,62.87,62.87,0,0,0-.21-6.43,47.88,47.88,0,0,0-8-21.55A21.76,21.76,0,0,0,57.16,165Zm338.73,6.63c-.68.07-2.72.93-6.38,2.7-3.85,1.84-14.46,6.64-23.6,10.66-34.85,15.32-52,23.45-66.89,31.72l-7.11,3.94-.56,3.35a47.67,47.67,0,0,0-.55,6.31c0,2.12-.54,4.66-1.91,8.91-1.05,3.26-2.71,9-3.69,12.75-3.83,14.64-6.69,22.95-15.81,46-5.83,14.71-6.81,18.44-8.84,33.58-.86,6.45-1.08,10.5-1.1,20.67,0,7,.15,13.51.37,14.55l.4,1.89,2.27-2.19c6.72-6.48,17.19-13.21,30.77-19.77,9.91-4.79,15.72-7.2,41-16.93,20.42-7.85,24.61-9.6,32-13.35,9.37-4.76,18.95-11.49,23.66-16.6,1.82-2,2-2.45,2.65-6.73.91-6,.83-20.36-.19-34.53-1.2-16.55-1.41-54.31-.37-65.21.88-9.27,2.48-17.58,4.16-21.52.06-.15,0-.21-.24-.18Zm-343,7.9c-.29,0-.51.53-.58,1.35a3,3,0,0,0,.45,2,12.46,12.46,0,0,0,1.66,2.3,14.25,14.25,0,0,1,3,4.37,23.54,23.54,0,0,1,2.13,10.38,22.45,22.45,0,0,1-1.22,7.94,21.63,21.63,0,0,1-3,6.05c-2.25,3.42-6.26,10.63-9.7,17.46A54.59,54.59,0,0,1,41,239.17c-4.67,6.83-4.53,6.59-6.38,11.28a118.05,118.05,0,0,0-4.11,11.21c-.09.41,0,.45.52.55.34.05,1.47.1,2.5.1a52.94,52.94,0,0,1,7.89.67c2,.33,2.71.35,2.8.06s-.47-.31-4.54-.65c-3.51-.3-4.93-.5-5.69-.82-.48-.2-.57-.33-.67-1a21,21,0,0,1,.68-5.94c1.28-4.78,3.62-8.89,9.6-16.87a60.18,60.18,0,0,0,5.56-8.52c9.23-16.36,10.87-19.46,11.31-21.48,1.43-6.55.25-14-3.42-21.54a47.16,47.16,0,0,0-3.84-6.6.37.37,0,0,0-.31-.11Zm234.51,5.59c4.57.12,9,3.71,11.15,10,2.6,7.71.1,14-6.23,15.69-3.2.86-7,1-9.06.33a8.66,8.66,0,0,1-5.86-4.83c-1.21-2.2-1.4-3.08-1.41-6.44,0-4.81,1.14-8.39,3.57-11.09a10.19,10.19,0,0,1,7.84-3.69Zm-100,12.79a3.25,3.25,0,0,0-2.32,1c-7.68,5.85-27.83,11.5-61.12,17.1-8.37,1.41-13.23,2.73-25.79,7C81.84,228.46,65.78,235,56,240l-5.35,2.74,2.92.34c1.61.19,7.57.69,13.26,1.11,26,1.93,68.45,8,160.89,23.1,16.63,2.71,21.09,3.59,21.9,4.33a7.13,7.13,0,0,0,1.75,1.19c6.08,2.18,16.36-20.79,20.71-46.28,1.16-6.81,1.55-14.81.79-16-.48-.75-5-2.33-10.1-3.53-10.16-2.39-21.35-3.84-50.82-6.58-10.3-1-20.24-2-22.08-2.21a21.38,21.38,0,0,0-2.55-.26Zm94.73,18.6c-2,0-4,2-5.6,5.57-3.24,7.22-1.74,13.59,3.2,13.59,1.8,0,2.31-.27,4.16-2.2,2.36-2.46,2.51-2.44,1.18.15-2.11,4.11-7.24,6.59-10.29,5-.77-.42-1-.31-1.15.61-3.25,15.94-9,27.81-19,39-5.07,5.7-9.88,12.06-10.84,14.33a7.85,7.85,0,0,0-.54,3.17c.25,2.55,3.11,3.62,11.36,4.24,3.74.28,7,.58,7.28.67s-.39.55-1.46,1c-1.48.66-3.85.94-10,1.18a67,67,0,0,0-8.92.72c-1.46.64-1.79,2.4-1.79,9.41,0,8.48.59,18.81,2.75,48.51,1.22,16.79,1.79,28.05,1.91,38.07.11,9.21.36,14.58.71,15.24a6.41,6.41,0,0,0,2.57,1.92,18.22,18.22,0,0,0,2.34.93c.17,0,.45-12.39.62-27.57.38-34.53,1.18-74.18,1.58-78.83.25-2.88.46-3.53,1.13-3.53,1.68,0,6.85-3,8.56-5a29.41,29.41,0,0,0,3.19-4.84c3.44-6.77,11.82-30.09,19.37-53.88,1.06-3.35,2.4-7.4,3-9,2-5.5.61-14.16-2.74-17.31a3.64,3.64,0,0,0-2.61-1.12ZM54.7,246.39c-3.63,0-5.59.27-5.13.73s19,4,32.24,6.28c23.56,4,42.58,6.68,95.62,13.36,17,2.14,35.82,4.57,41.84,5.4s13.14,1.68,15.82,1.89q20.76,1.65-.86-2.55c-22.22-4.32-46.91-8.21-87-13.72-77.4-10.63-80.34-11-88.39-11.3-1.55-.06-2.95-.09-4.17-.09Zm-8,7.34c-.91.16-.89.43.74,7.71.94,4.14,1.73,7.59,1.78,7.64.16.21,33.32,6.13,52.58,9.39,33,5.58,61.07,9.79,89.05,13.37,7.49,1,18,2.52,23.35,3.48s12,2,14.84,2.36c7.63.94,7.79.93,7.79-.38,0-2.16,2.45-6,7-10.94a42.16,42.16,0,0,0,4.92-6c.77-2.42-2-3.09-14.87-3.58-4.68-.18-12.23-.86-16.78-1.52l-22.86-3.35c-8-1.18-22.49-3.15-32.12-4.37s-25.62-3.32-35.52-4.65c-25.95-3.48-78.14-9.45-79.92-9.15Zm7.73,4.89C61.3,258.54,157.69,272.28,204,280c13.89,2.32,29,5.18,29.39,5.59s-3.86.11-7.25-.36C153.92,275.3,53,259.73,54,258.67a.88.88,0,0,1,.38-.06Zm-20.62,6.26c-2,0-2.49.18-3.41.92A3.27,3.27,0,0,0,29,268c0,1.88,1.7,2.67,5.82,2.69a37.5,37.5,0,0,1,6.59.68c4.42,1,4.2,1.11,4-2l-.15-2.78-2.19-.65a39.85,39.85,0,0,0-6.81-.93c-1.06-.06-1.89-.1-2.55-.12Zm28.11,2.92c1.68-.07,66.93,9.11,103.87,14.61,32.31,4.81,61.5,9.71,62.24,10.45.34.34-1.39.13-7-.83-5.3-.9-13.66-2.1-87.83-12.6-44.94-6.37-76-11.43-71.27-11.63Zm-25.74,6.33a5.42,5.42,0,0,0-2.55.88c-3.8,2.32-5,9.18-4.14,23.83.6,10.18,2.37,31.05,2.73,32.05A5.21,5.21,0,0,0,34,332.47c2,1.25,3,1.23,6-.11l2.5-1.1.37-7.54c.53-11,.4-32.48-.24-38.68s-1.79-9.13-3.94-10.24a5.1,5.1,0,0,0-2.58-.67Zm8.1,2.57a6.91,6.91,0,0,0,.3,2.86c1,4.15,1.63,21.58,1.31,34.8-.34,13.79-.39,13.53,3.2,17.42,5.09,5.52,10.16,6.8,29.65,7.51,10.43.37,13.58.65,16.74,1.48,2.14.57,7.39,1.57,11.67,2.24,12.65,2,32.52,5.34,48.66,8.27,8.3,1.51,27.68,4.87,43.07,7.48h0c15.39,2.61,28.91,4.77,30,4.8l2.07.06v-5.47A131.94,131.94,0,0,1,232.67,341c2.71-18.49,2.74-24.48.14-30.51-1.09-2.53-5-6.53-6.81-6.93-1.54-.35-25.32-3.61-48.09-6.6-52.51-6.88-71.88-9.63-94.2-13.36-8.81-1.47-21.22-3.69-27.58-4.94s-11.72-2.12-11.89-2Zm199.62,39.11c.16.1.27.73.41,2.09.94,8.93,2.73,47.21,3.07,65.55.3,16.4.06,21.47-.55,11.68-.17-2.75-1-15.28-1.78-27.86-1.62-25.34-2.35-49.64-1.52-51.11.15-.28.27-.41.37-.35ZM42.2,334.43c-.16,0-.66.65-1.11,1.44-1.4,2.46-2.67,2.4-8.35-.38-.55-.27,0,2.21,1.4,6.72.86,2.71,1.28,5.65,1.65,11.43.69,10.79,1.65,38.19,1.42,40.6-.21,2.21,0,2.36,1.51,1.13,1.87-1.53,3.22-12.9,3.93-33.21.44-12.6.2-27.74-.45-27.73Z" transform="translate(-26.13 -5.02)" fill="#fc0" stroke="#fc0" stroke-linecap="round" stroke-linejoin="round" stroke-width="5.79" fill-rule="evenodd"/><path id="path5664" d="M250.5,418.09c.56-26.26.54-83.8,2-110,9.47-2.05,12.73-8.19,16.3-18.67,6.47-15.4,15.74-44.91,17.41-50.85,7.51-12.12-3.77-34.87-11.09-13.82-3.23,12.84,7.09,14.69,10.81,6.13-3.38,11.19-14,7.82-12.34,6-1.58,13-7.06,25.43-14.88,36.28-22.38,24.71-21.18,27,3.53,27.32-5.7,4.36-19.51-.23-22.38,4-2.44,16.54,6.64,91.08,4.09,105.87.11,7.11,4,6,6.53,7.72Zm-3.36-17.32c0-13.21-6.18-82.19-3.17-85.19C245,330.68,248.27,385.51,247.14,400.77Zm-15.72-37.09c-3.06-18.33,13-51.87-5.3-60.36C160.5,293.8,106.38,288.89,43.62,276c0,0,4.51,33.21,1,48.46,7.27,22.77,37.74,10.43,55.2,17.79,34,4.56,67.63,11.91,101.42,17l27.19,4.64,3-.24ZM340,327.75c18.48-6.9,38.66-14.9,51.87-29.81,4.6-20.63-1.54-42.3.25-63.48-1.71-18.31-1-56.56,5.59-64.71-11.17,7.51-66.31,27.74-105.85,50.68-8,42.09-13.11,53.62-26.61,87.24-4.66,11.58-8.82,50.35-5,61.14,19.6-19.77,52.84-30.45,79.77-41.06ZM237.11,298.51c-1.14-8,14.4-16,11.58-19.88-1.68-2.34-15.1-1.89-26.22-2.67-59.71-9.58-122.87-17-177.12-22.82L49,269.33c50.41,9.42,102.67,18,151.19,23.95,12.24,1.29,25.08,5.12,36.94,5.23Zm-8.4-5.4C205.94,288.6,83.44,273.54,61,267.74,83.81,270.85,207,287.79,228.71,293.11Zm4.66-7.32C208.08,283.14,76,263.34,53.59,258.64,76,260.55,217.05,280.92,233.37,285.79Zm16-11.46c-51.84-11-104.54-16.69-156.93-24.36-12.24-.93-40.63-6.64-43.75-2.61C104.9,259.33,164.28,264.79,224,273A106,106,0,0,0,249.41,274.33ZM45.83,266.57C42.9,265.16,34,263.74,31.19,265c-3.69,1.64-4.28,7,4.86,5.84,1.52-.48,9.67,1.95,9.6,1.41-.18-2.06.38-4.6.18-5.67Zm202.71,4.24C260,286.4,277.22,219.3,273,209.87c-17.75-7.56-57.81-8.65-86.72-12.35-3.34,2.93-11.44,10.2-67.19,19-10.16,1.6-55.94,17.78-69.49,26.74,41.2.73,149.78,19.89,199,27.55ZM60.2,209.24c3.48-13-3.68-24.79-6.86-29.66-.64-1-2.82,1.9,1,5.62,5.35,5.16,7.87,19.19.64,29a228.21,228.21,0,0,0-11,20.27c-.61,1.32-7.61,11-7.85,11.91-.13.45-6.51,15.79-5.73,15.85.18,0,15.46,2.38,13.82.65-.44-.46-10.33-.53-10.84-1.65-.88-10.1,7.4-19.55,13.28-27.41,4.81-8.76,7.75-13.36,13.51-24.54Zm-11,29.54c2.09-1,9.7-7.77,10.7-9.77,14.33-28.75,8.74-50.93-2.82-64.41-.21,1.28,1.52,2-.17,3.23C76,185.58,61,231.49,49.17,238.77ZM401.53,161.5c-1.06.29-2.57,1.16-4.7,3.24-19.75,11.59-75.09,28.42-103.13,50.16.61-.12-2.87,2.3-1.85,1.87,29.28-21.79,80.24-36.51,107.25-50.88,4.35-4.23,3.75-4.76,2.43-4.39Zm1.42-2.94c2.19-7.91-.74-11.09-3.4-13.85-6.28-8.43-27.62-6.68-35.66,2.67-26.33,11.61-54.36,20.09-79.76,34.07-14.56,4.93-13.32,31.49,2.71,33,2.77-.42,5.86-1,7.77-3C321.49,191.62,373.41,177,403,158.56ZM291.47,210.84C273.59,215,273.66,196,279.44,189c5.27-6.36,15.78-5,19.24,7,1.74,6.55,1,12.95-7.21,14.87ZM409.71,57.11c12.07-4.29-22.14-51.92-21.18-17.21-6.11,33.71-11.7,65.08-17.62,98.83.45-1,1,.22,1.3-1.35,1.63-8.56,18.9.75,21.6-4.7,9.17-18.49,12.84-61.63,15.9-75.57ZM100.19,134.26c25.62-6,51.59-10.4,77.62-14.26,17.4,21.67-1.12,51.78,11.47,74.17l5.54.61,54.83,5.31c33.74,9.46,14.77-24.1,41.83-30.2,21.91-7.8,49.39-19.82,74.17-30.09C375.21,71,387.82,54.18,380.44,28.39c-3.82-8.67-8.56-11.23-25-12.74-48.87-6.3-130.37-13.55-148-1.28-21.64,13.86-18.07,44.55-24.41,66.76C182,91,179,120.57,177.81,120c3.78-32.49,6.44-69.3,18.17-99.92C214.72-.45,248.55,6.31,268.75,5.36c42.85,1.4,88.69,2.39,127.49,17.09,20.65,9.46,21.2,33.83,15.27,52.54q-5.06,32.36-12.94,64.17c18.88,19-1.83,27.22-4.53,63.77,0,34,2.8,68,4.18,101.93,1.95,12.67,12.49,40.81,7,43.43l-10.62,5.1c-3.28-9.37-7.13-20.26-9.28-32.51-3.71-3.35-8.52-2.78-17.21,2.46-28,15.12-67.22,21.86-93.81,39.44-19.45,13.45-8.8,37.69-10.78,56.92-.12,2.19-.19,3.57-1.3,5.25l-21.34-.32c-13.75-12.41,9.22-44.82-12.38-54.61-22.52-7.86-46.8-9.51-70-15.35-32.89-5.86-66.06-9.86-99.1-14.73-8.41,16.68-.31,45.29-5.55,59.8-4.71-.06-18-.36-18.49-.6h0c.84-4.53,4.63-1.25,5-7.35,3.06-17.74,2.9-40.46,2.5-64.21,1.29-22.16.66-39-.57-47.23s-9.91-8.82-12.34-.54-.25,27.45,1.81,51.18c5,6,9.92-.14,10.49.56a7,7,0,0,1-.61,2.77c-2.7,7.24-8.51-.08-9.26,1-.75,1.48,2.59,9.7,2.63,10.33,1,13.18,2.1,40.14,2,50-.45.61-2.64,3.49-3.49,3.33,4.77-24.18-17.79-132.36.26-153,9.47-16.8,33.14-47.26,15.06-63.05-13.45.08-25.48-18.63-10.5-28.25s43-14.19,61.83-20.34ZM37.08,158.15c-12.73,18,12.87,32.54,15.75,12.57-17,19.58-20-23.09.8-11.74,29,18.28,13.61,56.64,12.4,71.09,27.2-16.44,101.38-17.42,118.59-38.2,2.68-3.21-4.31-15.9-1.18-22.53-.15-13.21,5-37.94-5.52-45.28-4-2.82-12-.53-21.4,1.33-38.34,6-99.8,18.59-117.47,30.91a10.34,10.34,0,0,0-2,1.85Z" transform="translate(-26.13 -5.02)"/></g></g></svg>