<svg data-name="Layer 1" xmlns="http://www.w3.org/2000/svg" viewBox="0 0 162.5 173.42"><path d="M94.79 2.89c-8.27 0-11.6.24-15 1.1-4.39 1.1-7.62 4-9.56 8.61-1.13 2.69-1.76 5.59-2.94 13.48-.29 1.92-.69 4.2-.9 5.08s-.56 3.27-.79 5.37c-.59 5.32-1 8.28-1.32 10.39l-.3 1.81.72 1.13c2.19 3.43 2.7 7.32 2.08 16-.39 5.52-.07 8.84 1.13 11.7.36.87.64 1.27.94 1.34s5.89.63 12.57 1.29 12.73 1.32 13.44 1.47c2.63.58 4.44.32 5.77-.81 1-.82 1.48-1.79 2.49-4.64 1.63-4.61 2.94-5.93 7.32-7.39 1-.34 3.45-1.23 5.42-2 5.06-1.95 24.25-9.94 24.51-10.2a30.12 30.12 0 00.84-4.4c.86-5.68 2-11.39 3.82-19.91 2.29-10.45 2.28-10.37 2.27-14.73s-.33-6-1.56-8c-1.41-2.21-3.13-2.87-9.86-3.69-17.69-2.2-29.24-3.07-41.12-3.07zm57.31 7.92a1.28 1.28 0 00-.58.11c-.73.33-1.23 1.67-1.39 3.62-.07.93-.87 5.89-1.79 11s-2.48 13.91-3.47 19.51-1.85 10.38-1.91 10.64c-.15.61 0 .44.48-.41.54-1.08 1-1.23 3.71-1 3.6.22 4.26.19 4.68-.25 1.21-1.22 3.21-8.66 4.51-16.7.4-2.55 2.08-13.7 2.08-13.86a4 4 0 01.6-.87c.72-.91.78-1.89.22-3.51-1.4-4.1-5-8.19-7.12-8.27zM62 49.87a38.61 38.61 0 00-6.63 1l-7.45 1.33C28.3 55.63 12.2 60.09 7.24 63.5a5.14 5.14 0 00-1.56 1.87 4.53 4.53 0 00-.68 3 3.75 3.75 0 00.6 2.69c1.2 1.94 3.78 2.81 5.2 1.76a5.57 5.57 0 001.56-2.43c.13-.41.06-.41-.78.24a6.54 6.54 0 01-1.7.93 1.35 1.35 0 01-1.43-.15c-2.52-1.45-1.68-7 1.15-7.55s7.55 3.23 9.32 7.71a17.34 17.34 0 011.23 6.55c.13 3.1-.14 5.53-1.23 11.05-.38 2-.7 3.73-.7 3.93 0 .45 0 .45 1.55-.33 3.53-1.78 11.83-4 23-6.11 12.19-2.32 19-4.58 22.45-7.44 1.42-1.18 1.56-1.51 1.13-2.63-.77-2-.95-6.06-.58-13.14.31-5.94-.14-9.46-1.56-12.08-.58-1.07-.79-1.23-1.93-1.41a2 2 0 00-.34 0zm86.77 6.8c-2.95 0-6.24.92-8.07 2.57-1 .93-2.05 1.36-15.05 6.46-10.92 4.28-19.39 8.28-20.67 9.78a7.49 7.49 0 00-1.64 5.16 5.56 5.56 0 00.56 3.08 5.67 5.67 0 003.52 3.31 5.25 5.25 0 003.09-.44 19.26 19.26 0 002.19-1.39c3.49-2.51 9.82-5.68 20.17-10.06 16-6.79 22.77-10.06 23.08-11.22a5.87 5.87 0 00-.3-3.49 8.42 8.42 0 00-3.27-3.08 9.19 9.19 0 00-3.63-.68zm6.93 9a1.25 1.25 0 00-.41.22c-2.29 1.54-7.87 4.14-20 9.34-3.27 1.4-6.79 2.93-7.83 3.39a117.7 117.7 0 00-11.68 5.83c-1.08.64-4.35 2.84-4.55 3.05s-.07.2.09 0 2.52-1.69 3.74-2.42c5.17-3.09 10.72-5.68 22-10.23 10.39-4.22 12.72-5.22 16-6.86l1.34-.68.55-.61a3.12 3.12 0 00.76-1.07zM14.45 67.06a.74.74 0 00.08.28.73.73 0 010 .75c-.14.16-.12.14.37.67 2.28 2.45 3.41 6.43 3.17 11.22a31.93 31.93 0 01-1 6.22c-1 3.92-2.72 7.71-4.41 9.69a1.9 1.9 0 00-.33.47 24 24 0 002.19-2 5.48 5.48 0 001.44-2.13 31.76 31.76 0 002.82-9.28 17.7 17.7 0 00.16-3 23 23 0 00-.09-2.63 19.63 19.63 0 00-3.27-8.82 8.36 8.36 0 00-1.13-1.44zm138.6 2.71a14.3 14.3 0 00-2.61 1.1c-1.57.76-5.92 2.72-9.66 4.36-14.26 6.27-21.27 9.6-27.37 13l-2.9 1.62-.23 1.37a18.46 18.46 0 00-.23 2.58 12.18 12.18 0 01-.78 3.64c-.43 1.34-1.11 3.69-1.51 5.22-1.57 6-2.74 9.39-6.47 18.82a43.65 43.65 0 00-3.62 13.74 56 56 0 00-.45 8.46c0 2.87.06 5.53.15 5.95l.17.78.93-.9c2.75-2.65 7-5.4 12.59-8.09 4-2 6.43-2.94 16.77-6.93 8.36-3.21 10.07-3.92 13.1-5.46a38.54 38.54 0 009.68-6.79c.74-.82.82-1 1.08-2.75a83.75 83.75 0 00-.08-14.13 263.58 263.58 0 01-.15-26.68 35.26 35.26 0 011.71-8.81c0-.06 0-.09-.1-.07zM12.7 73c-.11 0-.2.22-.23.55a1.23 1.23 0 00.18.82 4.9 4.9 0 00.68.94 6 6 0 011.23 1.79 9.56 9.56 0 01.87 4.25 9.24 9.24 0 01-.5 3.25 8.79 8.79 0 01-1.23 2.47c-.92 1.4-2.56 4.35-4 7.15a21.66 21.66 0 01-1.89 3.18c-1.91 2.8-1.85 2.7-2.61 4.62a46.64 46.64 0 00-1.68 4.59c0 .16 0 .18.21.22s.6 0 1 0a20.61 20.61 0 013.23.28c.82.13 1.11.14 1.15 0s-.2-.13-1.86-.27a9.61 9.61 0 01-2.33-.33c-.2-.08-.23-.14-.27-.41a8.64 8.64 0 01.27-2.43c.53-2 1.49-3.64 3.93-6.9a24.9 24.9 0 002.28-3.49c3.77-6.69 4.45-8 4.63-8.79a13.65 13.65 0 00-1.4-8.81 19.59 19.59 0 00-1.57-2.7.17.17 0 00-.13-.05zm96 2.29c1.87 0 3.68 1.52 4.56 4.09 1.07 3.15 0 5.73-2.55 6.42a7.5 7.5 0 01-3.7.13 3.51 3.51 0 01-2.4-2 4.26 4.26 0 01-.58-2.64 6.43 6.43 0 011.46-4.53 4.16 4.16 0 013.21-1.51zm-40.92 5.23a1.32 1.32 0 00-.95.41c-3.14 2.39-11.38 4.71-25 7a56.9 56.9 0 00-10.55 2.86 138.37 138.37 0 00-17.25 6.95l-2.19 1.12 1.19.14c.66.08 3.1.29 5.43.46 10.64.79 28 3.27 65.83 9.45 6.8 1.11 8.63 1.47 9 1.77a3 3 0 00.72.49c2.48.89 6.69-8.51 8.47-18.94.48-2.78.64-6.06.32-6.55a13 13 0 00-4.13-1.44c-4.16-1-8.73-1.57-20.79-2.69-4.22-.41-8.28-.82-9-.91a8.93 8.93 0 00-1-.1zm38.67 7.61c-.82 0-1.63.82-2.29 2.28-1.32 3-.71 5.56 1.31 5.56.74 0 1-.11 1.7-.9 1-1 1-1 .49.06-.87 1.68-3 2.7-4.21 2-.32-.17-.41-.13-.47.25a32.16 32.16 0 01-7.78 16 34.66 34.66 0 00-4.43 5.86 3.19 3.19 0 00-.23 1.3c.11 1 1.28 1.48 4.65 1.73 1.53.12 2.87.24 3 .28s-.16.22-.6.4c-.6.27-1.57.39-4.09.49a26.28 26.28 0 00-3.65.29c-.59.26-.73 1-.73 3.85 0 3.47.24 7.7 1.13 19.85.49 6.87.73 11.48.78 15.58a39.25 39.25 0 00.29 6.23 2.63 2.63 0 001 .79 6.61 6.61 0 001 .38c.07 0 .18-5.07.25-11.28.16-14.13.48-30.35.65-32.26.1-1.17.18-1.44.46-1.44a7.89 7.89 0 003.5-2.05 11.52 11.52 0 001.31-2c1.4-2.77 4.83-12.31 7.92-22 .44-1.37 1-3 1.23-3.68.82-2.26.25-5.8-1.12-7.09a1.54 1.54 0 00-1.07-.46zm-93 12.23c-1.48 0-2.28.11-2.09.3s7.77 1.63 13.19 2.57c9.64 1.63 17.42 2.73 39.12 5.46 7 .88 14.66 1.87 17.12 2.21s5.38.69 6.48.78q8.49.68-.36-1c-9.09-1.77-19.19-3.36-35.59-5.61-31.67-4.35-32.88-4.5-36.17-4.63h-1.71zm-3.27 3c-.37.07-.36.18.3 3.16.39 1.69.71 3.1.73 3.12s13.64 2.51 21.52 3.84c13.5 2.29 25 4 36.43 5.47 3.07.41 7.37 1 9.56 1.43s4.91.82 6.07 1c3.12.39 3.19.38 3.19-.15 0-.88 1-2.46 2.86-4.48a17 17 0 002-2.45c.31-1-.82-1.27-6.09-1.47-1.91-.07-5-.35-6.87-.62l-9.35-1.37c-3.27-.48-9.2-1.29-13.14-1.79s-10.48-1.36-14.54-1.9c-10.61-1.42-32-3.87-32.7-3.74zm3.16 2c2.82 0 42.26 5.59 61.2 8.75 5.69.95 11.87 2.12 12 2.29s-1.58 0-3-.15c-29.55-4.06-70.84-10.43-70.43-10.87a.26.26 0 01.15 0zm-8.43 2.56a1.76 1.76 0 00-1.4.38 1.33 1.33 0 00-.57.9c0 .77.69 1.09 2.38 1.1a15.27 15.27 0 012.7.28c1.81.41 1.72.45 1.63-.82l-.06-1.14-.89-.26a15.47 15.47 0 00-2.79-.38l-1-.05zm11.5 1.2c.69 0 27.39 3.73 42.5 6 13.22 2 25.16 4 25.47 4.27.14.14-.57.06-2.87-.34s-5.59-.86-35.93-5.15c-18.39-2.61-31.1-4.68-29.17-4.76zm-10.53 2.59a2.2 2.2 0 00-1 .36c-1.55.95-2 3.75-1.69 9.75.25 4.16 1 12.7 1.12 13.11a2.24 2.24 0 00.72.65c.82.51 1.23.5 2.46 0l1-.45.15-3.08c.22-4.5.17-13.29-.09-15.83s-.74-3.73-1.62-4.19a2 2 0 00-1-.27zm3.31 1.05a2.91 2.91 0 00.12 1.17c.41 1.7.67 8.83.54 14.24-.14 5.64-.16 5.54 1.31 7.13 2.08 2.26 4.16 2.78 12.13 3.07 4.27.15 5.56.27 6.85.61.88.23 3 .64 4.78.91 5.17.82 13.3 2.19 19.91 3.39 3.39.61 11.32 2 17.62 3.06h0c6.3 1.06 11.83 1.95 12.27 2h.85v-2.24a53.34 53.34 0 01.71-7c1.1-7.57 1.12-10 .05-12.48a6.46 6.46 0 00-2.78-2.84c-.63-.14-10.36-1.48-19.68-2.7-21.49-2.82-29.41-3.94-38.55-5.47-3.6-.6-8.68-1.51-11.28-2s-4.8-.87-4.87-.82zm81.68 16c.07 0 .11.3.17.86.38 3.65 1.12 19.32 1.25 26.82.13 6.71 0 8.78-.22 4.78-.07-1.13-.41-6.25-.73-11.4-.66-10.37-1-20.31-.62-20.91q.09-.18.15-.15zM8.3 136.42c-.07 0-.27.27-.45.59-.58 1-1.1 1-3.42-.15-.23-.12 0 .9.57 2.74a19.09 19.09 0 01.68 4.68c.28 4.42.67 15.63.58 16.61s0 1 .62.47 1.31-5.28 1.6-13.59c.18-5.2.09-11.35-.18-11.35z" fill="#fc0" stroke="#fc0" stroke-linecap="round" stroke-linejoin="round" stroke-width="5.79" fill-rule="evenodd"/><path d="M93.53 170.61c.23-10.74.22-34.29.82-45 3.87-.83 5.21-3.35 6.67-7.64 2.65-6.3 6.44-18.37 7.12-20.8 3.08-5-1.54-14.27-4.54-5.66-1.32 5.26 2.91 6 4.43 2.51-1.38 4.58-5.73 3.2-5.05 2.46a32.35 32.35 0 01-6.09 14.84c-9.16 10.11-8.67 11.05 1.44 11.18-2.33 1.78-8-.09-9.15 1.64-1 6.76 2.71 37.26 1.67 43.32 0 2.91 1.64 2.45 2.67 3.15zm-1.37-7.08c0-5.41-2.53-33.63-1.3-34.86.42 6.18 1.76 28.61 1.3 34.86zm-6.44-15.18c-1.25-7.5 5.32-21.22-2.16-24.7-26.85-3.89-49-5.9-74.68-11.18 0 0 1.85 13.59.41 19.83 3 9.32 15.44 4.27 22.59 7.28 13.91 1.87 27.67 4.87 41.5 7l11.12 1.9 1.23-.1zm44.43-14.7c7.56-2.83 15.82-6.1 21.23-12.2 1.88-8.44-.63-17.31.1-26-.7-7.5-.41-23.15 2.29-26.48-4.57 3.07-27.14 11.35-43.32 20.74-3.27 17.22-5.36 21.94-10.88 35.69-1.91 4.74-3.61 20.6-2.05 25 8-8.09 21.62-12.46 32.64-16.8zm-42.1-12c-.46-3.27 5.89-6.54 4.74-8.13-.69-1-6.18-.77-10.73-1.09-24.43-3.92-50.27-7-72.47-9.34l1.49 6.62c20.63 3.86 42 7.37 61.87 9.8 5 .53 10.26 2.1 15.11 2.14zm-3.43-2.21c-9.32-1.84-59.45-8-68.63-10.38 9.34 1.28 59.74 8.21 68.63 10.38zm1.9-3c-10.35-1.08-64.39-9.19-73.56-11.11 9.17.78 66.88 9.12 73.56 11.11zm6.55-4.69c-21.21-4.5-42.78-6.83-64.21-10-5-.38-16.63-2.71-17.9-1.07 23 4.9 47.29 7.14 71.73 10.5a43.63 43.63 0 0010.4.54zm-83.28-3.17c-1.2-.58-4.85-1.16-6-.65-1.51.67-1.76 2.87 2 2.39.63-.19 4 .8 3.93.58-.07-.84.16-1.88.08-2.32zm82.94 1.73c4.69 6.38 11.73-21.08 10-24.94-7.27-3.09-23.66-3.53-35.49-5.05-1.36 1.2-4.68 4.18-27.49 7.78-4.16.65-22.89 7.27-28.43 10.94 16.86.3 61.28 8.14 81.42 11.27zM15.67 85.12c1.42-5.32-1.51-10.15-2.81-12.14-.26-.41-1.16.78.41 2.3 2.19 2.11 3.22 7.85.26 11.87a92 92 0 00-4.5 8.29c-.25.54-3.12 4.5-3.21 4.87-.06.19-2.67 6.46-2.35 6.49.08 0 6.33 1 5.66.27-.18-.19-4.23-.22-4.44-.68-.36-4.13 3-8 5.44-11.22 2-3.58 3.17-5.46 5.52-10zM11.16 97.2a19.65 19.65 0 004.38-4c5.87-11.77 3.58-20.84-1.15-26.36-.09.53.62.82-.07 1.32 7.81 7.27 1.67 26.05-3.17 29zm144.17-31.58a4.88 4.88 0 00-1.92 1.33c-8.09 4.74-30.73 11.63-42.2 20.52.25-.05-1.18.94-.76.77 12-8.92 32.83-14.94 43.88-20.82 1.78-1.73 1.54-1.95 1-1.8zm.58-1.2c.9-3.24-.3-4.54-1.39-5.67-2.57-3.45-11.3-2.73-14.59 1.1-10.78 4.75-22.25 8.22-32.64 13.94-6 2-5.45 12.88 1.11 13.5a5.43 5.43 0 003.18-1.23c11-8.11 32.24-14.09 44.35-21.64zm-45.62 21.39c-7.31 1.7-7.28-6.07-4.92-8.93 2.16-2.61 6.46-2.05 7.88 2.86.71 2.68.4 5.3-3 6.08zm48.39-62.9c4.93-1.76-9.06-21.24-8.67-7-2.5 13.79-4.79 26.63-7.21 40.44.18-.41.41.09.53-.56.67-3.5 7.74.31 8.84-1.92 3.75-7.6 5.28-25.26 6.51-30.96zM32.03 54.48c10.48-2.46 21.11-4.26 31.76-5.84 7.12 8.87-.46 21.19 4.69 30.35l2.27.25 22.43 2.18c13.81 3.87 6.05-9.86 17.12-12.35 9-3.2 20.21-8.11 30.35-12.32 3.91-28.15 9.07-35 6.05-45.58-1.56-3.55-3.5-4.6-10.23-5.21-20.02-2.54-53.34-5.54-60.56-.54-8.85 5.67-7.39 18.23-10 27.32-.42 4-1.64 16.14-2.13 15.9 1.54-13.29 2.63-28.35 7.43-40.88 7.67-8.4 21.51-5.64 29.78-6 17.53.58 36.29 1 52.16 7 8.45 3.87 8.68 13.84 6.25 21.5q-2.07 13.23-5.29 26.25c7.72 7.78-.75 11.14-1.86 26.1 0 13.91 1.15 27.82 1.71 41.7.8 5.19 5.11 16.7 2.87 17.77l-4.38 2.06a83.15 83.15 0 01-3.79-13.3c-1.52-1.37-3.49-1.14-7.05 1-11.45 6.19-27.5 9-38.38 16.14-8 5.51-3.6 15.42-4.41 23.29a3.8 3.8 0 01-.53 2.15l-8.74-.13c-5.62-5.08 3.78-18.34-5.06-22.35-9.22-3.21-19.15-3.89-28.64-6.28-13.46-2.39-27-4-40.55-6-3.44 6.82-.13 18.53-2.27 24.46-1.93 0-7.37-.14-7.57-.24.35-1.85 1.9-.51 2-3 1.25-7.26 1.18-16.55 1-26.27a108.18 108.18 0 00-.23-19.33c-.51-3.36-4.06-3.61-5-.22s-.1 11.23.74 20.94c2 2.46 4.06-.05 4.29.23a2.82 2.82 0 01-.25 1.14c-1.1 3-3.48 0-3.79.41s1.06 4 1.08 4.22c.41 5.4.86 16.43.82 20.46-.19.25-1.08 1.43-1.43 1.36 2-9.89-7.28-54.15.1-62.6 3.88-6.87 13.56-19.34 6.17-25.8-5.51 0-10.43-7.62-4.3-11.56s17.6-5.8 25.3-8.32zM6.21 64.25C1 71.62 11.47 77.57 12.65 69.4c-7 8-8.18-9.45.33-4.81 11.86 7.48 5.57 23.18 5.07 29.09 11.13-6.73 41.48-7.13 48.52-15.63 1.1-1.31-1.76-6.51-.48-9.22-.06-5.4 2.05-15.52-2.26-18.53-1.63-1.15-4.91-.21-8.75.55-15.69 2.45-40.84 7.6-48.07 12.65a4.48 4.48 0 00-.82.75z"/></svg>