<svg id="Layer_1" data-name="Layer 1" xmlns="http://www.w3.org/2000/svg" viewBox="0 0 3001.04 2993.54"><polygon points="0.52 0.52 3000.52 0.52 3000.52 2000.52 347.39 2000.52 0.52 2000.52 0.52 0.52" fill="#44ccbe" stroke="#000" stroke-miterlimit="10" stroke-width="1.04"/><line x1="339.52" y1="2080.52" x2="327.52" y2="465.52" fill="none" stroke="#fff" stroke-miterlimit="10" stroke-width="6"/><line x1="2686.52" y1="465.52" x2="2698.52" y2="2080.52" fill="none" stroke="#fff" stroke-miterlimit="10" stroke-width="6"/><polyline points="2911.52 1982.52 2875.52 159.52 2934.89 193.52" fill="none" stroke="#fff" stroke-miterlimit="10" stroke-width="6"/><line x1="2274.52" y1="533.52" x2="2287.52" y2="2340.52" fill="none" stroke="#fff" stroke-miterlimit="10" stroke-width="6"/><polyline points="69.02 238.02 123.52 193.52 136.52 2000.52" fill="none" stroke="#fff" stroke-miterlimit="10" stroke-width="6"/><line x1="181.52" y1="244.52" x2="123.52" y2="193.52" fill="none" stroke="#fff" stroke-miterlimit="10" stroke-width="6"/><polyline points="82.02 313.02 123.52 256.52 169.27 313.02" fill="none" stroke="#fff" stroke-miterlimit="10" stroke-width="6"/><polyline points="82.02 369.02 123.52 337.77 152.52 369.02" fill="none" stroke="#fff" stroke-miterlimit="10" stroke-width="6"/><polyline points="69.02 437.77 125.64 394.02 169.27 437.77" fill="none" stroke="#fff" stroke-miterlimit="10" stroke-width="6"/><line x1="2875.52" y1="159.52" x2="2816.15" y2="193.52" fill="none" stroke="#fff" stroke-miterlimit="10" stroke-width="6"/><polyline points="2828.64 256.52 2875.52 219.02 2934.89 256.52" fill="none" stroke="#fff" stroke-miterlimit="10" stroke-width="6"/><polyline points="2828.64 313.02 2875.52 284.77 2934.89 313.02" fill="none" stroke="#fff" stroke-miterlimit="10" stroke-width="6"/><polyline points="2816.52 384.52 2875.52 353.39 2934.89 369.02" fill="none" stroke="#fff" stroke-miterlimit="10" stroke-width="6"/><path d="M333,193S158,490,224,547,334,447,334,447s-25.69,108.94,62,114C552,570,482,339,333,193Z" transform="translate(0.52 0.52)" fill="none" stroke="#fff" stroke-miterlimit="10" stroke-width="6"/><path d="M2269.38,353s175,216.38,109,257.91-110-72.86-110-72.86,25.69,79.37-62,83.06C2050.38,627.66,2120.38,459.37,2269.38,353Z" transform="translate(0.52 0.52)" fill="none" stroke="#fff" stroke-miterlimit="10" stroke-width="5.12"/><polyline points="811.52 620.02 757.02 575.52 744.02 2382.52" fill="none" stroke="#fff" stroke-miterlimit="10" stroke-width="6"/><line x1="699.02" y1="626.52" x2="757.02" y2="575.52" fill="none" stroke="#fff" stroke-miterlimit="10" stroke-width="6"/><polyline points="798.52 695.02 757.02 638.52 711.27 695.02" fill="none" stroke="#fff" stroke-miterlimit="10" stroke-width="6"/><polyline points="798.52 751.02 757.02 719.77 728.02 751.02" fill="none" stroke="#fff" stroke-miterlimit="10" stroke-width="6"/><polyline points="811.52 819.77 754.89 776.02 711.27 819.77" fill="none" stroke="#fff" stroke-miterlimit="10" stroke-width="6"/><path d="M2581.5,218.5s92.75-78.5,156,1,91.6,153,24,218c-52,50-137,31-137,31C2537.5,449.5,2493.62,265,2581.5,218.5Z" transform="translate(0.52 0.52)" fill="none" stroke="#fff" stroke-miterlimit="10" stroke-width="5.12"/><line x1="2676.52" y1="437.9" x2="2737.65" y2="350.49" fill="none" stroke="#fff" stroke-miterlimit="10" stroke-width="6"/><line x1="2676.4" y1="444.02" x2="2592.02" y2="387.77" fill="none" stroke="#fff" stroke-miterlimit="10" stroke-width="6"/><polyline points="2723.08 298.89 2676.39 377.65 2592.02 313.02" fill="none" stroke="#fff" stroke-miterlimit="10" stroke-width="6"/><path d="M2675.88,284.25l30.37-47Z" transform="translate(0.52 0.52)" fill="none" stroke="#fff" stroke-miterlimit="10" stroke-width="6"/><line x1="2592.02" y1="256.52" x2="2676.4" y2="284.77" fill="none" stroke="#fff" stroke-miterlimit="10" stroke-width="6"/><path d="M834.38,158.23c33.09-7.77,78.13,45.89,82.88,42.63s4.63-39.4,54.74-43.4" transform="translate(0.52 0.52)" fill="none" stroke="#fff" stroke-miterlimit="10" stroke-width="6"/><path d="M971.55,249.07c33.1-7.77,78.14,45.88,82.89,42.62s4.63-39.4,54.74-43.39" transform="translate(0.52 0.52)" fill="none" stroke="#fff" stroke-miterlimit="10" stroke-width="6"/><path d="M1641,714.43c24.69-4.33,58.29,25.53,61.84,23.72s3.45-21.93,40.83-24.15" transform="translate(0.52 0.52)" fill="none" stroke="#fff" stroke-miterlimit="10" stroke-width="3.87"/><path d="M1780.51,745c24.69-4.33,58.29,25.53,61.83,23.72s3.46-21.93,40.84-24.15" transform="translate(0.52 0.52)" fill="none" stroke="#fff" stroke-miterlimit="10" stroke-width="3.87"/><line x1="1370.45" y1="1720.77" x2="1361.86" y2="2993.52" fill="none" stroke="#fff" stroke-miterlimit="10" stroke-width="4.51"/><polyline points="1533.62 2915.2 1559.38 1478.52 1516.89 1505.32" fill="none" stroke="#fff" stroke-miterlimit="10" stroke-width="4.51"/><line x1="1559.38" y1="1478.52" x2="1601.88" y2="1505.32" fill="none" stroke="#fff" stroke-miterlimit="10" stroke-width="4.51"/><polyline points="1592.93 1554.96 1559.38 1525.41 1516.89 1554.96" fill="none" stroke="#fff" stroke-miterlimit="10" stroke-width="4.51"/><polyline points="1592.93 1599.49 1559.38 1577.23 1516.89 1599.49" fill="none" stroke="#fff" stroke-miterlimit="10" stroke-width="4.51"/><polyline points="1601.61 1655.84 1559.38 1631.31 1516.89 1643.62" fill="none" stroke="#fff" stroke-miterlimit="10" stroke-width="4.51"/><path d="M1444.72,1526s-66.38-61.86-111.65.79-65.56,120.58-17.18,171.8c37.22,39.41,98,24.43,98,24.43C1476.21,1708,1507.61,1562.63,1444.72,1526Z" transform="translate(0.52 0.52)" fill="none" stroke="#fff" stroke-miterlimit="10" stroke-width="3.85"/><line x1="1377.61" y1="1699" x2="1333.86" y2="1630.12" fill="none" stroke="#fff" stroke-miterlimit="10" stroke-width="4.51"/><line x1="1377.7" y1="1703.82" x2="1438.08" y2="1659.49" fill="none" stroke="#fff" stroke-miterlimit="10" stroke-width="4.51"/><polyline points="1344.28 1589.45 1377.7 1651.52 1438.08 1600.58" fill="none" stroke="#fff" stroke-miterlimit="10" stroke-width="4.51"/><path d="M1377.18,1577.8l-21.74-37Z" transform="translate(0.52 0.52)" fill="none" stroke="#fff" stroke-miterlimit="10" stroke-width="4.51"/><line x1="1438.08" y1="1556.06" x2="1377.7" y2="1578.32" fill="none" stroke="#fff" stroke-miterlimit="10" stroke-width="4.51"/></svg>