<svg id="Layer_1" data-name="Layer 1" xmlns="http://www.w3.org/2000/svg" viewBox="0 0 1280 377.47"><path d="M668.7,371.43c-.3,1.9-1.1,12.7-1.7,24s-1.3,23.1-1.7,26.4c-.6,5.6-.7,5.8-2,3.5s-1.4-2.3-.8.8c.4,1.7-.2,7.3-1.1,12.5-1.7,8.8-1.8,9.1-2.5,5.3-.3-2.2-1.5-12.8-2.5-23.5l-1.9-19.5-.5,17c-.7,19.7-2.3,25.9-10.6,39.6-4.5,7.4-6.4,8.9-6.4,5.1,0-2.1-13.1-55.4-13.5-55-.2.2,1.2,11.1,3.1,24.3,4,28.5,4.9,39.1,3.6,42.5-.8,2.1-1.1,1.5-1.6-4.5-1.3-12.5-3.6-28.6-7.1-49l-3.5-20,.6,14.5c.4,8,.9,20.8,1.3,28.5s.4,15.9.1,18.3l-.5,4.4-1.8-3.1c-1.7-2.9-1.7-3.5-.2-11.6,2.1-11.2,1.5-14.2-.8-4.2-1,4.2-2.3,7.7-2.8,7.7s-.9,1.1-.9,2.4-.4,2.8-1,3.1-1-1.3-1-4.4c0-4.4-3.6-38.5-5.9-55.6-.8-5.4-.9-4.9-1,5.5-.1,9.2-.5,12.8-2.3,17.9l-2.3,6.5-.5-24-.5-23.9-1.8,17c-2.4,21.7-2.4,21.7-4.9,17.6a91.22,91.22,0,0,1-5.4-10.9c-5.7-12.9-3.6-4.2,3,12.6,2,5.1,3.4,10.2,3.2,11.5-1.8,8.7-1.4,8.8-6.2-2.3-2.4-5.8-4.4-11.5-4.4-12.8s-.4-2.1-.9-1.8-1.4-1.5-2.1-3.9c-2-7.2-2.4-4.4-.5,3.4.9,3.9,1.5,7.6,1.2,8.3s-.6.2-.6-1.1c-.2-4.8-1.2-1.2-2.1,7.5-1.4,12.7-8.2,42.3-9.1,39.2-.5-2.1-1.4-14.7-2.5-39.3-1.4-29.2-3-31.3-3.7-5-.5,14.9-.5,15.1-4,22-6.1,12-6.2,12-7.6,2.9-2-12.9-7.9-41.6-9.6-46.4-.8-2.5-1.3-3.4-1-2s1.2,10,2.1,19.2c1.4,14.1,1.5,17.6.4,22.7-.7,3.4-1.6,6.1-1.9,6.1s-1.3-5.7-2-12.8c-1.1-11.1-3.7-31.2-4.4-33.5-.1-.4-.2,13.5-.3,31v31.8l-3.8,6.8c-2.1,3.8-3.9,6.7-4.1,6.5s1.2-6.8,3.1-14.8,3.3-14.9,3.1-15.3-1.3,2.4-2.6,6.5c-3.1,9.6-12,33.1-13,34.1-.4.4-1.8-1.5-3.1-4.2l-2.3-5,1.7-26.3c.9-14.5,1.9-28.1,2.2-30.3s.3-3.7,0-3.4-1.7,6.5-3,13.8-2.7,13.5-3.1,13.9-.5-.6-.1-2.2c.9-3.8-.5-69.9-1.4-66.6a116.43,116.43,0,0,0-1.4,13c-2.3,33.8-5.9,66-7.5,66-.4,0-2.1-2.9-3.9-6.5-2.8-5.7-3.9-10.4-7.7-33.7-2.5-14.9-4.5-27.5-4.5-28.1s-.2-.8-.5-.5-.1,6.3.5,13.4,1.1,18.5,1.4,25.4.9,15.8,1.2,19.7.4,7.3.1,7.3-1.4-1.7-2.3-3.8c-1.4-3.5-1.9-5.9-2.4-14.2l-.3-3.5-.6,4-.6,4-2.4-6.7c-1.4-3.7-2.6-6.6-2.8-6.4s.8,4.9,2.2,10.5c2.4,9.7,2.5,10.4,1,16a78.76,78.76,0,0,1-3.2,9.7l-1.8,3.9-.5-7-.5-7-.8,5.5c-.4,3-1.1,8.2-1.5,11.5l-.8,6-1.2-6.5c-.7-3.6-3.5-19.1-6.2-34.5s-5.2-28.5-5.5-29-.1,2.8.2,7.5c.5,7.4.2,9.4-1.8,15l-2.4,6.5-.8-6.5c-.4-3.6-1.4-11.5-2.1-17.5l-1.3-11-.2,23.2c-.1,21.4-.3,23.6-2.3,29l-2.3,5.8-.5-5.5-.6-5.5-.7,8a81,81,0,0,1-3.5,15.5l-2.6,7.5-.8-5.5c-1.8-12.9-4.2-26.4-6.9-38.9-1.8-8-2.7-14.7-2.4-16.5.4-2.2.3-2.7-.3-1.7s-1.3-.2-2.2-4.5c-2.5-12.8-3.1-12.4-1.6,1.1,1,9.1.9,10.6-.8,16.2-1.1,3.5-2.4,6.3-2.8,6.3s-1.4-2-2-4.5c-.9-3.2-1.4-4.1-1.8-2.9s-1.4.4-3.8-3.7c-3.8-6.5-4.2-5.8-.7,1.1l2.5,5-3,14.1c-3.9,18.3-4.9,22.1-5.9,21.4-.5-.3-1.2.5-1.5,1.8-.6,2.1-6.4,9.3-7,8.5a17.7,17.7,0,0,1-1.4-3.3c-1.1-2.8-1.1-2.6-.6,1.5.5,3.7.2,4.9-1.4,6.3-2.2,2-1.5,4.8-5.8-22.3-2.3-14.7-2.3-15.9-.9-23.3,2.1-10.9,1.8-13.7-.5-4.9-2.1,8-6,17.3-6.6,15.7-.2-.6-2.2-5.7-4.4-11.5s-3.9-10-3.9-9.4,1.2,6.4,2.9,13c3.4,13.5,3.4,14.2,1.6,16.6-1.2,1.6-1.6,1.3-4-3.2-2.6-4.8-2.7-5.7-2.6-17.8.3-23.2,0-48.5-.5-48-.3.2-1.4,11.2-2.5,24.3s-2.2,24.1-2.4,24.2-1.1-1.6-2.2-3.9a27.86,27.86,0,0,0-2.4-4.8,50.74,50.74,0,0,1-2.9-5.7c-1.4-2.9-2.6-5.1-2.8-5s1.2,4.5,2.9,9.5c2.2,6.1,3,9.4,2.3,10.1s-3.3-4.8-7.9-16.4c-3.8-9.6-7.1-17.4-7.2-17.2s2.3,9.4,5.5,20.7l5.7,20.5-.6,18c-.3,9.9-.7,15.6-.8,12.6-.3-7.4-1.6-5.5-2.2,3.2l-.5,7.2-3.2-7.5c-3.8-8.8-4.4-7-.9,2.7,3.1,8.6,1,5.9-5-6.2-4.4-9.1-5.3-9.9-3.4-3.5a58.82,58.82,0,0,1,1.6,7,39.21,39.21,0,0,0,1,5c.7,2.1-.5.6-6-7.1l-4.6-6.7,3-13.8c1.7-7.7,3.3-14.9,3.5-16.2s.3-2.2,0-2.2-1.4,3.4-2.6,7.5-2.4,7.3-2.7,7.1.6-8,1.8-17.1,2-16.9,1.7-17.1-1.2,3.5-2.3,8.3l-1.9,8.8-.6-7c-.4-3.9-.8-12.6-.9-19.5-.3-12.8-1.5-29.9-1.8-24.4-.8,13.8-3.3,48.6-3.8,51.4l-.6,3.5-1.4-3.7c-1.4-4-6.6-12.2-16.1-25.4-3.2-4.5-6.4-9-7.1-10s1.1,2.6,3.9,8.1c16.4,31.2,16.8,32.5,14.9,50-.6,6-1.5,12.8-2,15s-1.5,6.7-2.1,10l-1.2,6-6.8-20.3c-6.8-20.3-6.8-20.3-6.3-29.5l.4-9.2-1.9,9c-1.1,4.9-2.8,11-3.7,13.5-2.4,6.3-7.4,16.3-8,15.7a87.07,87.07,0,0,1-2-9.2,192,192,0,0,0-5.5-21.2c-2.1-6.8-3.9-13.2-3.9-14.3a3.13,3.13,0,0,0-.8-2.4c-.4-.2-.6,1.4-.4,3.7.4,4.1.3,4.1-1.2,2-.9-1.2-3.5-5.5-5.8-9.5s-5.9-10-8.1-13.3a133.26,133.26,0,0,1-6.9-11.8,36.13,36.13,0,0,0-3.3-5.7c-.6,0,2.1,7.3,4.5,11.9,2.7,5.4,2,6.4-1,1.6-1.2-2-2.5-3.4-2.7-3.1s1.6,3.9,4.2,8.1c3.5,5.7,4.5,8.2,4.1,10-.4,1.4-1,2.5-1.4,2.5s-2.4-2.1-4.4-4.8-5.5-7.1-7.7-10.1c-2.7-3.4-4.1-6.4-4.2-8.5-.1-3-.1-3-.9-.6-.4,1.4-.8,2-.9,1.4a11.15,11.15,0,0,0-1.6-3c-1.4-1.8-1.4-1.7-.4,1.1a15.56,15.56,0,0,0,2,4.1c1.2,1.4,2.8,29.9,2.9,49.1,0,11-.3,14-2.1,18.7-4.1,10.7-4.8,7.5-5-22.4,0-12.9-.4-25.8-.9-28.5l-.7-5-.2,6.6c-.1,7.1-1.8,26.2-2.7,31.9-.6,3.5-.6,3.4-3.5-4-2.4-6.2-2.9-9-3-17-.1-9.3-1.6-18.5-1.8-11.5-.2,4.6-1.3,10.5-2,10.5-.9-.1-6.7-14.5-10.2-25.7-1.8-5.7-3.4-10.1-3.6-9.9s.8,5.9,2.1,12.7c3.3,16.4,5.9,35,5.4,38l-.4,2.4-1.1-2.5c-.7-1.4-4.9-11.8-9.4-23.3s-8.5-21-8.9-21.2.6,3.7,2.2,8.8c3.6,11.3,11.8,43.3,11.8,46,0,2.9-10.1,16.2-11.1,14.5-.4-.7-3.8-10.2-7.5-21s-6.9-19.6-7.2-19.4,2,10.8,4.9,23.6c5.1,22.9,5.4,25.7,2.2,26.7-.6.2-1.5-.9-2.2-2.4-1.8-4.6-10.5-36-12.7-45.8l-1.3-6,.5,7c.2,3.8,1.2,11.1,2,16.1s1.4,10.6,1.2,12.5l-.3,3.4-3.6-5c-4.9-6.7-5.9-10.8-5.9-25.1,0-22.3-1.4-55.1-2.1-50.9-.4,2.2-1.3,12.9-1.9,23.8s-1.7,20-2.2,20.3a.47.47,0,0,1-.8-.4c0-.4-1.8-3.3-4-6.2-3-4-4-6.4-4.1-9.4l-.2-4.1-.6,3.4-.6,3.3-4-5.6c-6.8-9.7-6.6-9.4-5.6-6.5a75.45,75.45,0,0,0,5.1,9.4l4.2,6.9-1.2,13c-1.2,11.8-1.4,12.8-2.8,11s-1.5-1.9-.7.1c1.4,3.4,1.6,8.8.7,14.5l-.9,5.5-2-4.5c-1.8-4.1-2-6.3-1.7-27.5l.3-23-2.4,17c-1.3,9.3-2.4,17.2-2.5,17.5s-.8-1.1-1.5-3-1.4-8-1.5-13.5l-.2-10-1.4,7a81.09,81.09,0,0,0-1.3,11.4c-.1,2.4-.4,4.1-.9,3.7s-2.4-6.9-4.4-14.4-3.7-12.9-3.7-12,1.3,10.4,2.9,21,2.9,21.1,2.8,23.3c-.3,3.8-.5,3.5-4.7-7-2.4-6.1-4.6-12.9-4.8-15.3s-1-4.2-1.5-4.2-1.5-1.5-2.3-3.3c-1.9-4.2-1.9-2.4,0,3.7a34.1,34.1,0,0,1,1.4,9v4.1l-1.6-4c-9.2-23.6-13.7-34.4-14.1-34.1-.2.3.5,3.3,1.7,6.8,4.4,13.6,4.9,16.9,4,26.3a104.53,104.53,0,0,1-3.6,17.5l-2.6,8.5-1.7-8c-1.8-8-5.9-20-6.6-19.3-.2.2.3,2.6,1.2,5.3a76.15,76.15,0,0,1,2,12.5l.6,7.5-3.5-4.8c-2-2.7-4.3-5.8-5.2-7l-1.6-2.2,1.2,2.3c.6,1.3.8,2.6.5,2.9s.4,2.8,1.5,5.6A88.12,88.12,0,0,1,85.6,462c1.5,7.2,1.5,7.3-1,12.1-1.7,3.3-2.5,4.2-2.6,2.8l-.1-2-.8,2c-.7,1.7-.9,1.5-1.5-1.5-3.1-15.7-11.2-48.9-11.4-46.9-.1,1.3.6,9.8,1.7,18.9s1.7,16.6,1.6,16.8a39.65,39.65,0,0,1-4.4-5.2c-3-4.1-4.1-6.5-4.1-9.1,0-1.9-.4-3.5-.9-3.5s-1.2-1.6-1.5-3.5c-.6-3.1-11.5-41.3-14.4-50.5l-1.2-3.5.6,4.4a75.55,75.55,0,0,1-.7,12.5c-1.2,8-1.2,8.1-2.4,4.6-.6-1.9-2.2-7.7-3.5-12.9s-2.6-8.9-2.7-8.4,1,9,2.6,18.8l2.9,17.8-1.9,12.6c-1.1,6.9-2.3,13.9-2.7,15.6l-.8,2.9-3.4-5.9c-1.9-3.3-5.8-12.3-8.7-20-5.1-13.8-6.8-16.4-3.7-5.9.8,3,1.4,5.9,1.2,6.4S19,428,16,422.63l-5.5-9.8-.2,6.9c-.3,8.6-3.2,20.9-7.2,30.6L0,457.73v289.7H632.6c577.4,0,632.6-.1,632-1.6-1.4-3.7-1.7-9.3-.7-11.3,1.9-3.4,3.5-2.5,4.8,2.6,2.3,9.5,2.8,10.3,7.3,10.3h4V444.53l-2.1-3.6c-1.7-2.9-2.1-4.7-1.6-8.8.5-5.1.5-5.1-.7-1.7l-1.3,3.5-4.6-8c-2.6-4.4-4.7-8.8-4.7-9.7s-.4-1.8-.9-1.8-1.2-1.2-1.5-2.6-.9-2.4-1.2-2.2.5,3.1,1.6,6.3c1.6,4.7,2,8.2,1.9,17.9-.1,7.7-.4,11-.9,9.1l-.8-3-.1,3.4c0,1.8.4,7.2,1,12l1.2,8.6-5.4,14.3c-2.9,7.9-5.5,13.9-5.7,13.3s.1-5,.7-9.8a136.57,136.57,0,0,0,.1-33.2c-.6-4.7-1.3-15.4-1.7-23.6-.6-12.4-.8-14-1.4-9.5-.4,3-.8,8.6-.9,12.5-.1,5.9-.3,6.7-1.3,5.1-1.2-1.9-6.5-9.8-16-23.8-2.8-4.2-5.3-7.5-5.5-7.3s1.8,4.7,4.6,9.9l5.1,9.4-2.4,11.9c-1.4,6.5-2.9,13.1-3.3,14.8l-.9,3-1-4c-.6-2.2-2.9-11.4-5.1-20.5s-3.9-14.5-3.6-12c1.6,12.8,1.5,30.8-.2,41.7-.9,6.2-1.8,11.3-2.1,11.3a12.14,12.14,0,0,1-1.9-3.5c-.9-2.2-1.4-7-1.4-13.4,0-11.7-1.9-18.8-8.1-30.1-2.3-4.1-6.4-11.7-9-16.9s-4.9-9.2-4.9-8.8c0,1.1,5.1,19,9.1,31.4,4.3,13.9,5.5,21.7,4.4,30l-.8,5.8-1.4-4c-.8-2.2-3.2-10.8-5.3-19s-4.8-17.8-5.9-21.2c-1.5-4.9-1.7-7.1-1-10.4,1.3-5.6.6-6-1.1-.7-1.9,6.1-2.5,6.4-3.9,1.7-.7-2.2-1.5-3.9-1.7-3.6s.2,2.9,1,5.8c1.5,4.9,1.5,5.8,0,10.4-2.3,7.1-3.4,7.7-3.5,1.9-.2-4.1-.3-3.7-.9,2.6-.4,4.1-.5,7.8-.3,8.2s0,.8-.5.8c-1.2,0-2.2-3.5-2.2-8,0-2.6-.3-3.1-1-2-1,1.7-.9,1.9-3.4-6.5-2.2-7.4-1.9-2.3.4,7.3,2,8.4,2.4,17.5,1.1,22.2-.6,1.9-1,.5-1.6-5.3-.4-4.2-1.2-7.7-1.7-7.7s-.7,2.6-.3,7c.4,3.8.4,7,.1,7s-1.5-1.9-2.7-4.2c-2.1-4.2-2.2-5.7-.4-16.3.4-2.3.3-2.6-.4-1-.6,1.4-1.1-1.4-1.7-9.5l-.8-11.5-1.7,19.9c-1.7,18.9-2.3,22.6-3.3,19.5-1.1-3.6-7.6-36-8.2-41.1-.4-3.4-1.2-5.9-2-6.2s-1.4-1.6-1.5-2.8-.3-1.8-.5-1.1-.1,3.7.5,6.7a19.79,19.79,0,0,1-.5,10.8c-.8,2.9-2.2,8.8-3.1,13.1s-1.9,7.5-2.2,7.1a29,29,0,0,1-1.8-5.7c-1.1-4.7-1.1-4.2-.6,5.5.4,7.8.2,11.2-.7,12.3-1.1,1.3-1.4,1.2-3.1-.8-2.1-2.5-2.4-1.9-.7,1.8.9,1.9.8,3.1-.2,5.2-1.2,2.6-1.3,2.7-2.1.8a41.47,41.47,0,0,1-.9-8.5c0-3.6-.7-11.9-1.5-18.5s-1.5-13.1-1.6-14.5-.5,7.2-.9,19l-.7,21.5-3.2,6.2c-3,6.1-4.9,8.3-3.6,4.4,1-3.4-1.5-15.4-5.1-24.1-2.9-7-3.6-9.7-3.5-15.5v-7l-1.2,5-1.2,5-2.2-5a55.14,55.14,0,0,1-2.8-7.8c-.4-1.5-1-2.6-1.2-2.3s.7,5.2,2.2,11.1c2.8,11.2,2.9,16,.2,8.5-1-2.5-1.5-3.4-1.2-2,1.7,8.3,1.6,12.6-.2,17l-2,4.4-4.2-7.9c-2.3-4.4-4.4-9.4-4.6-11s-1-16-1.6-31.9-1.6-28.1-2-27-1.2,13.4-1.8,27.4-1.5,27.1-1.9,29c-.8,3.4-.8,3.3-4.2-5.5a49.59,49.59,0,0,1-4-18.5c-.8-13.6-1.8-7.9-2.6,14.3-.3,10.4-1,18.5-1.4,18-.7-.8-8.9-26.8-11-35.1a26.79,26.79,0,0,0-1.3-4.2c-.2,0-.2,11.4,0,25.2l.2,25.3-2.9-12c-7.1-28.9-9.1-37.8-10.5-47.6-2.1-14.1-2.6-14.4-1.9-1.4,1,19.8,2,47,1.7,47.4-.9,1.2-1.8-1.7-2.5-7.2-1.5-13.1-2.1-16.8-2.9-17.3-.5-.3-.9,2.5-.9,6.3-.1,6.5-.1,6.7-1.5,4.3l-1.5-2.5.6,3a30.74,30.74,0,0,0,1.4,4.5c.4.8.5,4.8.3,8.8l-.6,7.3-1.8-3.8c-2.4-5.1-2.3-3.2.2,4.7,1.8,5.9,1.9,7.4.9,16.1-1.6,14-2.8,17.3-2.9,7.9-.2-10.5-1.7-18.7-5.6-30.4l-3.4-10.1.5,7.5c.6,7.5-.9,23.8-2.4,28.1-.7,1.9-1.3,1.3-4.6-4.7-4.2-7.8-3.9-5.2.5,4.6,3.9,8.4,1.7,6-5.4-6.2-4.9-8.3-5.9-10.8-6.8-17.5-1.3-9.1-1.9-10.4-2-4.2-.1,2.4-.3,3.6-.6,2.6-.8-3.2-2.2-1.7-1.7,2,.2,2.1-.9-.9-2.4-6.7s-3.1-11.2-3.5-12c-.7-1.6-.6-.8,1.8,15.5,3.4,23.1,3.7,28.4,1.9,33.9l-1.7,5-3.2-11.9c-4.5-17.1-15.9-55.5-16.3-55.1-.2.2,1.8,11.5,4.3,25.1,4.8,26.2,5.5,33.9,1.4,16.4-2.1-8.9-2.5-9.9-2.9-6.9-.4,2.5-1.1-.8-2.4-11-2.7-20.7-3.4-21.6-2.9-4l.4,15.5-5.2-10c-2.9-5.5-6.3-12.5-7.6-15.5-4-9.3-1.7-.2,3.7,14.5,2.6,7.1,5.1,14.6,5.5,16.5s.9,4.3,1.2,5.4.1,1.6-.4,1.3-2.9-5.7-5.3-11.9-5.6-14.1-7.2-17.6c-2.4-5.1-2.8-7.1-2.3-11,.6-4.6.5-4.6-.8-1.7l-1.3,2.9-2.4-6.7c-1.3-3.7-2.5-6.5-2.8-6.3s.8,4.6,2.3,9.6,2.4,9.5,2.1,9.8-.6.1-.6-.4a7.47,7.47,0,0,0-1.5-3c-1.2-1.4-1.1-.7.4,3.1,1.7,4.7,1.7,5.7.4,15.5-.7,5.8-1.6,11.6-1.9,13-.4,1.9-2.8-3.6-9.4-22-4.9-13.5-8.9-23.9-9-23.2s2.2,10.1,4.9,21c5.2,20.7,7.1,31.5,5.3,29.7-.6-.6-5.3-6.9-10.6-14-7.8-10.6-9.8-14-10.7-18.5-1.3-6.1-4.1-15.9-3.5-12,1.5,9.2,2.7,29.3,1.9,30.1s-1.3-.4-1.7-3.3c-.4-2.4-1.1-5-1.7-5.8-.9-1.3-1-1.2-.5.2.3,1,.8,5.8,1.2,10.6.7,9.3-.1,13.5-4.9,24.2l-2,4.5-3.3-13c-3.8-15-4-14.6-1.8,4.5,1.7,14.6,1.5,17.2-1.1,20.5-1.4,1.9-1.5,1.3-1.4-8,.3-11.2-.7-15.5-7-31.1-2.1-5.4-4.5-11.8-5.2-14.2s-1.4-4.1-1.6-3.9c-.5.6,1.5,9.9,4.3,19.9a117.2,117.2,0,0,1,3.3,14c.8,5,.8,5.2-.7,3-.8-1.3-4.2-8.2-7.4-15.5-5.3-12-5.8-13.8-5.9-20.7s-.2-7.2-1-3.1a27.39,27.39,0,0,1-1.2,4.7c-.2.3-1.7-2.6-3.2-6.3-3.7-8.9-5-10.2-2.6-2.8,5.4,17.3,5.3,16.4,3.6,28.2-2.4,17-2.3,16.6-5,11.3-1.3-2.5-5.6-17.4-9.6-33.3s-7.5-28.3-7.7-27.8,1.2,11.5,3.2,24.3,4,28.4,4.7,34.7c1.2,11.6.8,41.8-.6,44-.4.8-2-.6-4.5-3.9l-3.7-5-.7-14.3c-.9-18.2-2.3-36.4-3.8-49.7l-1.2-10.5-1.8,19c-1,10.4-2.2,19.9-2.7,21-1.5,3.6-2.5-10.9-1.2-17.6.7-3.4,1-6.3.7-6.6s-.8,1.1-1.1,3.1-1,3.8-1.4,4-1.5-4.9-2.5-11.5-2-11.8-2.3-11.6,0,8.2.6,17.6c.8,12.5.8,17.7,0,19.5-1.1,2.3-1.6,1.8-10.5-11.5-5.2-7.7-9.4-14.5-9.4-15.1s-.3-.9-.6-.5,1.4,4.9,4,10.1c5,10.3,6.3,16.6,1.6,7.6-3.8-7.2-3.8-6.1.1,3.1,4.7,11.1,7.4,22.9,4.8,21.3-.6-.3-.3.8.6,2.6,1.6,3.1,1.3,8.6-.4,7.6-.7-.5-3.6-14.7-4.5-22.6-.2-1.9-.2,5.3.1,16.1.3,13.5.1,19.9-.6,20.4s-1.1-.7-1.1-3.3c0-5.3-2.3-12.5-7.5-23.9-2.5-5.2-4.5-11-4.6-12.7a27.83,27.83,0,0,0-2-8.1l-1.9-5,.5,4c.5,3.1.3,3.7-.5,2.5s-1-.8-.5,1.5c1.3,6.6,1.7,13,.6,11.5-.8-1.1-1.1,0-1.1,4.4,0,3.5-.4,5.6-.9,5-1.9-2.1-7.1-19.2-12.6-41.2-3.2-12.8-5.9-23.1-6.1-23s1.3,11.1,3.2,24.3c3.6,25.8,5.8,47.6,5.2,54-.3,3.7-.5,3.3-3-5.5s-2.8-11.2-2.9-27l-.1-17.5-1.2,11.2c-1.5,13.7-3.1,16.3-2.3,3.8.4-5.5.3-8-.2-6.5a23.47,23.47,0,0,0-1,5.4c-.1,4.2-1.5,2.3-4.1-5.9a70.07,70.07,0,0,0-3.6-9.5c-1.6-2.7-1.6-3,1,7.5,1.3,5.2,1.3,8,.2,21.3-1.3,14.4-2.6,21.2-2.6,12.6,0-2.1-.7-15.4-1.7-29.4-1.5-21.8-1.9-24.6-2.5-19-.4,3.6-.8,11.5-.9,17.6a127.64,127.64,0,0,1-1,16.5c-.7,4.4-.7,3.6-.4-4.6.3-8.7.2-9.5-.8-6l-1.1,4-1.3-5.5-1.2-5.5.4,9c.4,6.8.1,10.1-1.2,13.7-.9,2.7-2,4.8-2.4,4.8-.8,0-7.9-15.8-7.9-17.8,0-.8,2.3-11,5-22.5s4.9-21.1,4.7-21.3-3.2,7.9-6.8,18.1-6.6,18.5-6.9,18.5-3-5.4-6-11.9-5.6-11.8-5.8-11.7,2.1,6.8,4.9,14.7l5.1,14.4-1.8,5c-3.4,10.1-3.9,10.1-4.2.7-.5-15.4-1.8-17.2-2.4-3.5-.7,14.9-1.9,17.9-3.8,9.6-1.6-7.2-1.5-9.3.5-19.4.9-4.4,1.5-8.2,1.3-8.5s-2.2,5.4-4.3,12.4a140.52,140.52,0,0,1-4.4,13.7c-.3.5-.9-.6-1.2-2.5-.5-2.6-.7-1.6-.8,3.7-.1,4.6-.5,7.3-1.2,7.3s-.9.7-.6,1.5-.5,4.5-1.8,8.2c-2.3,6.7-2.4,6.7-2.4,2.8a83.68,83.68,0,0,1,1.4-12.5c.8-4.7,1.4-9.4,1.4-10.5l-.1-2-.5,2a65.53,65.53,0,0,1-2.4,6.2,27.19,27.19,0,0,0-2,7,17.19,17.19,0,0,1-.8,4.8c-.6,1.4-1,.5-1.5-3.5a74,74,0,0,0-2.3-10.6l-1.5-5,3.5-9c4.1-10.2,6.3-18.5,7.1-26.4l.5-5.5-1.8,6.5c-3.2,11.1-8.2,23-9.7,23-.4,0-.4-4.8-.1-10.8.7-11.5-.2-9.7-2.3,5.2-1.1,8.1-1.4,8.8-2.7,7a7.58,7.58,0,0,1-.9-5.4c.3-1.9.8-6.2,1-9.5l.5-6-1.8,7c-1,3.8-2.1,6.9-2.6,6.8s-2.4-3-4.2-6.5c-3.8-7.1-3.5-4.6.6,5.2,2.2,5.4,2.5,7.2,1.8,10.5-1.5,7-2.1,7.2-2.7,1l-.7-6-.2,6.5-.3,6.5-1.8-5c-2.3-6.3-2.4-5.6-.4,3.8,1.3,6.5,1.3,8,.1,10.2-1.4,2.7-1.4,2.7-4-4.8-3.2-9-3.2-9.1-.7-23.6,2-11.7,2-15.8,0-8-3.1,12.2-4.7,16.4-5.5,14.5-.7-1.7,0-5.8,3-16.3.3-1-.7.9-2.3,4.2l-2.8,6-2.7-7c-1.5-3.9-3.3-8.8-4.1-11-2.4-6.7-1.8-1.6,1.4,10.4a105.66,105.66,0,0,1,3,13.4c0,2,0,2.1-1.5.1-1.3-1.8-1.4-1.5-1.5,2.9,0,3.4-1.3,7.9-4.7,15.8-2.5,6-4.8,10.7-5.1,10.4s.2-3,1.1-6.2c1.6-5.8,3.7-20.4,3.7-25.3-.1-4-1.6-.3-2.3,5.5a73.83,73.83,0,0,1-2.3,10.5c-2.6,8.4-3.4,4.2-2.8-14.5C672.1,422.13,669.8,365.93,668.7,371.43Zm-427.9,34.2c2.1,3.5,4.9,8.2,6.1,10.6l2.2,4.3-3.3,8.9c-1.7,4.9-3.3,8.8-3.5,8.7s-1.4-7.9-2.8-17.2-2.8-18-3-19.3C235.7,398.13,236.5,398.93,240.8,405.63ZM50.5,421.73c1.5,8.1,2.5,15.5,2.3,16.5s-1.4-.5-3.3-4.3c-2.8-5.6-3-6.9-3.2-18.5C46,400,46.9,401.53,50.5,421.73Zm206.5-3.9a38.2,38.2,0,0,0,.6,6.6c.3,1.6-.4.9-2-2-2.6-4.6-3.1-7.5-1.9-10.6.6-1.6.7-1.6,2,.2A12.43,12.43,0,0,1,257,417.83Zm-104.5,8.3c.9,2.9,1.5,5.7,1.3,6.3-.7,2.1-7.8-12.7-7.8-16.1v-3.4l2.4,4A52.06,52.06,0,0,1,152.5,426.13Zm1000.2-9.5c-.3.7-.5.2-.5-1.2s.2-1.9.5-1.3A5.28,5.28,0,0,1,1152.7,416.63Zm39,0c-.3.8-.6.5-.6-.6s.2-1.7.5-1.3A2,2,0,0,1,1191.7,416.63Zm-107.3,6.8,1.6,5.5-2-2.5a11.11,11.11,0,0,1-1.9-6.5C1082.2,415.53,1082.2,415.63,1084.4,423.43Zm-1055.3,36c1.6,6.3,2.9,11.9,2.9,12.4s-5-5.7-11-13.7l-11-14.7,1-6.3c.5-3.4,1-8.9,1.1-12.2l.1-6,7,14.5C24.2,443.83,27,451.13,29.1,459.43Zm1163-28c0,1.9,1.5,12.5,3.4,23.5,4.7,28.2,4.6,26.3,2,32l-2.2,5-3.2-6.8c-2.8-6.3-3.1-7.8-3.1-17a86.75,86.75,0,0,0-1.5-16.2,63.46,63.46,0,0,1-1.5-9.6c0-3.4,2.4-16.4,3.7-19.9C1190.4,420.53,1192,426.63,1192.1,431.43ZM152.4,443.33l-.7,5.4-2.8-3.4c-2.7-3.2-2.8-3.9-2.8-12.9v-9.5l3.5,7.5C152.7,437.13,153,438.43,152.4,443.33Zm1001.4-1.2c-.3,7.1-.9,6.9-2.6-.7-.7-3.6-.8-2.4-.4,5.4.4,6.8.2,9.7-.5,9.3s-1.4-3.1-1.8-6.2c-.6-5,1.3-16.2,4.3-25C1153.7,422.43,1154.2,432.53,1153.8,442.13Zm-567.1,6.3c.6,10.5-1.2,19.5-6.1,30.1l-2.4,5.4-.1-4.5c0-9.4,1.9-49.6,2.6-52.5s.8-2.5,3.1,4.5A66.23,66.23,0,0,1,586.7,448.43Zm656.5-15.7a59.11,59.11,0,0,1,4.4,13.7c.8,6.9-.8,19.8-4.9,40.5l-3.1,16-.9-5.7c-.8-4.8-.4-7.9,2.2-20,4-18.8,5.5-26.8,5-27.3-.3-.2-2.4,6.1-4.8,14.1-2.6,8.7-4.7,14-5.2,13.3-1.7-2.8-1.9-12.9-.5-23.4.8-6.1,1.8-15.2,2.2-20.3s1-9.2,1.3-9.2S1241.2,428.23,1243.2,432.73Zm-990.5,2.6c.5,6.6-1,26-2.6,31.7-.7,2.6-.7,2.5-2-1.5-1.8-6.3-2.3-4.5-.5,2.3,1.4,5.3,1.4,6.7-.5,18.3-3.2,19.9-3.3,19.5-3.2-13.6.1-20,.4-24.6,2.2-31.5,4.1-16.6,4-16.2,5.1-14.3C251.7,427.73,252.4,431.53,252.7,435.33Zm351.2,1.3c-.1,6.2-.3,10.4-.5,9.3s-1-3.9-1.5-6.2c-.9-3.1-.8-5.4.2-9.2.7-2.8,1.4-5.1,1.6-5.1S603.9,430.53,603.9,436.63Zm483.8,5.8c-.4,3-1.1,8-1.8,11-1.7,8-2.5,4.4-3.1-13.4l-.5-15,3,5.9C1087.9,436.13,1088.2,437.53,1087.7,442.43ZM106,450.93c-.7,2.5-1.5,4.5-1.9,4.5s-1.4-1.5-2.3-3.3c-1.4-2.5-1.5-4.1-.8-7.7a84.76,84.76,0,0,0,1.1-11.5l.1-7,2.5,10.2C107,445.33,107.1,446.93,106,450.93Zm352,12.5c1.1,19.6.8,28-1,31-1.3,2-1.6-.4-3.7-25.5-2.2-26.9-2.2-29.4.2-37l1.9-6,.7,8.6C456.5,439.33,457.3,452.33,458,463.43ZM1270.3,434c2.3,5.5,2.5,6.5,1.4,10.2-1.9,6.2-2.4,5.9-3.1-2-.4-4-1-9.1-1.3-11.3C1266.6,425.83,1267.2,426.43,1270.3,434Zm-848,4.4.6,5.5-1.9-2.4c-2.2-2.5-2.4-4-1.3-9.2.5-2.7.7-2.9,1.3-1.3A40.81,40.81,0,0,1,422.3,438.43Zm522.8,14.2,2.9,5.7L943.8,469c-5,12.7-4.5,13.7-8.3-14.1-1.4-10.5-2.9-20.4-3.2-22C931.7,429.63,939.8,442.13,945.1,452.63Zm-532.5-11.9a35.67,35.67,0,0,1-2.6,10c-1.3,2.8-1.9,3.3-1.6,1.7.3-1.4.8-6.7,1.2-11.9.6-8.5.8-9.2,2.1-7.5C412.8,434.43,413,436.53,412.6,440.73Zm554.8-5.9c1.3,3.1,1.2,5.1-.4,17.7-1.1,7.8-2.2,14.4-2.6,14.8s-.4-4.3,0-10.3.6-14.2.6-18.3.2-7.3.5-7.3S966.6,432.93,967.4,434.83Zm-837.5,7.4c.1,2.9-.3,5.1-.8,4.8-1.4-.9-2.1-6.5-1.4-11,.6-3.7.7-3.8,1.4-1.6A44.59,44.59,0,0,1,129.9,442.23Zm229.1.3c0,1.1-.4,1.9-.9,1.9-1.1,0-2.1-3.6-2-7.5v-3l1.4,3.4A17.62,17.62,0,0,1,359,442.53Zm692-2.1c0,1.3-.1,1.3-1,0a7.11,7.11,0,0,1-1-3c0-1.3.1-1.3,1,0A7.11,7.11,0,0,1,1051,440.43Zm-936.1,4.9c1.1,4.1,1.9,7.6,1.7,7.8-.6.6-4.6-11.8-4.6-14.1C112,435.93,112.7,437.43,114.9,445.33ZM55,450.83c.5,3.4,1.1,10.4,1.4,15.6l.5,9.5-1.3-8.6c-1.3-8.5-4.2-23.5-5.2-27.4-.3-1.1.4-.5,1.6,1.4A28,28,0,0,1,55,450.83Zm297.9-.6c.1,2-.3,3.1-.9,2.7s-1-2.7-.9-5.3c0-3.5.3-4.2.9-2.7A15.79,15.79,0,0,1,352.9,450.23Zm67.1-2.1c2.9,6.4,3.6,14.7,2,23.8-.7,4.2-1.4,7.4-1.6,7.2s-1.2-7.4-2.3-16c-1.7-13.5-1.8-19.7-.5-19.7A20.81,20.81,0,0,1,420,448.13Zm615.5,15.2c-.4,4-1,6.9-1.5,6.5s-.4-4.1.1-7.9.9-9.7,1-13l.3-6,.4,6.5A131.73,131.73,0,0,1,1035.5,463.33Zm-654.6-10.2v8.8l-1.5-4.5c-1.6-4.9-.9-13,1.2-13C380.8,444.43,381,448.33,380.9,453.13Zm272.1,1.8c-.5,8.6-1,10.7-3.4,14.8-1.6,2.6-3,4.6-3.2,4.4-.5-.5,5.3-27.3,6.2-28.8C653.6,443.63,653.6,444.43,653,454.93Zm237.6,6.6c-1.1,9.2-1.4,10.3-1.1,4.5.3-4.3.5-11.1.6-15,0-5.7.2-6.6,1-4.5C891.8,448.33,891.6,453.13,890.6,461.53Zm98.1-13.9c-.3.7-.5.2-.5-1.2s.2-1.9.5-1.3A5.28,5.28,0,0,1,988.7,447.63Zm62.2,4.3c0,3.7-.3,4.5-.9,3-1.2-2.9-1.2-11.4,0-9.5C1050.5,446.23,1050.9,449.13,1050.9,451.93Zm122.8,4.7c.9,6.1-1.3,4.4-2.6-2-.6-3.1-1.4-6.8-1.6-8.2s.4-.5,1.6,2A40.3,40.3,0,0,1,1173.7,456.63ZM21.4,464.73l10.4,17.7-1.3,5.8c-.8,3.1-2,8.1-2.7,11.1l-1.2,5.4-1.7-4.9c-2-5.7-2.3-4.2-.8,4,.9,5.3.8,6.7-1.7,14.8s-2.9,8.7-3.8,6.7c-1-2.3-1-2.3-1.4.8-.2,1.8-.6,3.3-1,3.3s-1.8,2-3.2,4.5-2.8,4.5-3.2,4.5-.9,1-.9,2.2c-.4,6.3-1.7-9.5-1.8-21.2-.2-16.8-1.7-40.1-3.1-46.8-1-4.6-.9-6,1.9-14.6,1.7-5.3,3.1-10.4,3.1-11.3C9,444,10.2,445.83,21.4,464.73Zm1090.8-15.2c.1,4.8-1.1,8.6-2.3,6.8s-1.1-5.2.1-8.5S1112,445.13,1112.2,449.53Zm163.7,6.1c.1,5.3-2.7,20.8-4,22.3-2.2,2.4-.6-24.6,1.9-31.5C1274.5,444.33,1275.7,449.63,1275.9,455.63ZM86,452.53c1.7,3.3,3,6.6,2.8,7.3s-1.7-2-3.4-6-3-7.4-2.8-7.4A31.92,31.92,0,0,1,86,452.53Zm889.8,27.1c-1.2,3.8-2.5,6.8-2.8,6.8-2.8,0-3.6-11-2.3-30.5l.7-10,3.3,13.5,3.2,13.5Zm-825.9-24.7a32,32,0,0,1-1.9,7.5l-1.8,5.5-.1-10.5-.1-10.5,2,3C149.1,451.53,150,453.83,149.9,454.93Zm147.6,14c1.9,14,3.5,28.3,3.4,31.5,0,1.4-2.5-7.2-5.6-18.9L289.8,460l1.8-6.5,1.8-6.6,1.3,5.5C295.3,455.43,296.6,462.83,297.5,468.93Zm387,2.3c-2.6,8.6-5.1,16.3-5.6,17.2-1.3,1.9-1,.4,2.4-11.2a91.11,91.11,0,0,0,3.2-14,86.88,86.88,0,0,1,2.3-10.8l1.7-5.5.3,4.3C689,454.23,687.7,460.43,684.5,471.23Zm-142-2.9c-1.3,1.4-1.5,1-1.5-4.1a58,58,0,0,1,1.3-11l1.2-5.3.3,9.4C544,464.83,543.8,467.13,542.5,468.33Zm17.8-13c-.6,6-.7,6.2-2,4-.9-1.4-1.2-1.7-.9-.6,1.6,5.2,1.6,10.1,0,18.7l-1.8,9.5-1.5-10.7-1.4-10.7,3.9-8.5a82.22,82.22,0,0,1,4.1-8.3A64,64,0,0,1,560.3,455.33Zm151.8-2.2c-.9,1.5-1,1.2-1-1.7s.1-3.2,1-1.8A3.18,3.18,0,0,1,712.1,453.13Zm129.8,7.3c.1,2.3-4.7-6.1-5.4-9.5-.4-2.2.2-1.6,2.4,2.5C840.6,456.43,841.9,459.63,841.9,460.43Zm-796,.8c.1,4-.3,6.1-.9,5.7s-.9-4.5-.9-9.3C44.3,447.63,45.7,450.63,45.9,461.23Zm56.1-5.8c1,2.4.9,3.7-.6,7.5-1.5,4.1-1.9,4.4-3.2,3.1s-1.3-2.3-.1-7.5c.7-3.4,1.6-6.1,2-6.1S101.3,453.73,102,455.43Zm686.7,2.2c-.3.7-.5.2-.5-1.2s.2-1.9.5-1.3A5.28,5.28,0,0,1,788.7,457.63Zm109.2,22.3a60.82,60.82,0,0,1-.8,9l-.6,3-1.3-4.1c-.6-2.2-1.4-10.8-1.7-19l-.5-14.9,2.5,10A81.65,81.65,0,0,1,897.9,479.93Zm327.7-6.8-1.6,4.8.5-5.5c.3-3,.5-8.4.6-12l.2-6.5.9,7.2C1227,466.83,1226.9,469.23,1225.6,473.13ZM205.5,462.43l.6,4.5-2.1-3.3c-1.3-2.1-1.8-4.1-1.4-5.4C203.5,455.43,204.7,457.13,205.5,462.43Zm535.3,3c.6,4.8.5,8.6-.1,10.4l-1,2.9-1.3-2.4c-1.7-3-1.7-5.5-.2-13.8C739.5,455,739.6,455.13,740.8,465.43ZM366,461c0,1.3-.4,2.4-1,2.4s-1-1.4-1-3.1.4-2.8,1-2.4S366,459.63,366,461Zm393.1,11.8c-.1,6.7-.4,13.7-.7,15.6-.6,4.2-3.4,11-4.4,11-1.3,0-4-6.6-4-9.7,0-1.5,1.7-9.4,3.7-17.5C758.2,454.83,759.4,454.93,759.1,472.83ZM111.9,471c2.2,12.6,2.6,17.4,1,11.4-.5-1.9-1.9-7-3-11.2-1.3-4.6-1.9-8.7-1.5-10.4.4-1.4.9-2.5,1.1-2.2S110.8,464.43,111.9,471Zm25.4.5c-.9,7.5-2.3,3.9-2.2-5.6l.1-8,1.3,4.3A21.94,21.94,0,0,1,137.3,471.53Zm238.6-6.6c0,1.7-.2,1.5-1.4-.7-.8-1.5-1.2-3.5-.8-4.5.6-1.6.8-1.5,1.4.7A28.62,28.62,0,0,1,375.9,464.93Zm805.8-1.8c-.3,1-.5.2-.5-1.7s.2-2.7.5-1.8A10.28,10.28,0,0,1,1181.7,463.13Zm-700.7,12c.7,6.2.9,12.4.5,14l-.7,2.8-2-3.9c-1.8-3.4-1.9-5-1.3-11.9a66.75,66.75,0,0,1,1.2-9.6c.4-1.4.3-1.4-.7-.1s-1.1,1.1-.6-1a25.93,25.93,0,0,0,.6-4C478.3,457.43,479.9,465.13,481,475.13Zm539.5-.6c1.6,6.9,1.7,7.9.2,12l-1.5,4.4-.1-8.5a83.3,83.3,0,0,0-1.6-14.5,65.52,65.52,0,0,1-1.4-7C1016.2,459,1018.7,466.93,1020.5,474.53Zm94.5-12c0,1.1-.4,1.8-1,1.4a1.58,1.58,0,0,1-.3-2C1114.4,459.83,1115,460,1115,462.53Zm-910,6.1c1.7,3.3,3,7,2.9,8.2,0,1.4-.5.7-1.4-1.9-1.3-3.9-1.4-3.8-.8,3.3.6,7.8-1.3,20-2.9,18.4-.5-.5-2.6-6.4-4.7-13l-3.9-12.1,3.1-5c1.7-2.7,3.4-4.8,3.9-4.5A34.27,34.27,0,0,1,205,468.63Zm724.4,5.6c.4,5.7.3,8.1-.4,7.7-1.3-.8-1.3.1.1,2.6s.1,20.8-1.2,18.7c-.7-1-.9-.8-1,.7-.1,1.1-1.2-3.6-2.6-10.5L921.9,481l2.8-9.8C927.8,460.33,928.2,460.63,929.4,474.23Zm19.8-5.2c-1.8,8.7-7.4,26.4-8.4,26.4-1.4,0-.9-3,3.4-18.7,2.9-10.7,4.4-15.1,5.2-14.3S950.1,465.13,949.2,469Zm-657.8,8.4c.9,7.4,1.9,15.5,2.2,18s.4,4.3.1,4-2.5-6.4-4.9-13.5l-4.4-13,2-5.2c1.2-2.8,2.4-4.9,2.8-4.5S290.5,470,291.4,477.43Zm124.4,2.2-.3,6.2-1.8-2.7c-1.5-2.4-1.6-3.5-.7-9.5,1.8-11.1,2.4-12.5,2.8-6C416,470.83,416,476.13,415.8,479.63Zm79.1-10.7a10.83,10.83,0,0,1-.9,4.5c-.7,1-1-.5-.9-5s.3-5.9.9-4.5A14.41,14.41,0,0,1,494.9,468.93Zm675.3-3.5c.3,1.7.1,3.3-.4,3.6s-.8-1.1-.8-3C1169,461.63,1169.6,461.33,1170.2,465.43Zm-551.9,12a66,66,0,0,1-1.1,10.5l-.8,3-2.8-4.2c-2.6-3.9-2.8-4.7-2.1-10.5a45,45,0,0,1,2.2-9.8l1.5-3.5,1.7,3.5C618,468.83,618.4,472.23,618.3,477.43Zm76.2-6c.5,2.9.4,4.2-.3,3.5-.5-.6-1.2-3.5-1.5-6.5C692,462.13,693.3,464.33,694.5,471.43Zm-249.4,1.7c-.2,4.9-.9,9.9-1.7,11.3-2.6,4.8-1.7-10.2,1.1-18.8C445.4,463.13,445.5,464.63,445.1,473.13Zm266-2.5c-.4,3.5-.6,3.8-.9,1.5-.3-2.6.3-5.7,1-5.7C711.4,466.43,711.3,468.33,711.1,470.63Zm110.3,1.1c2.1,7.1,3,15.7,2.2,20.1s-2,4-4-2c-1.2-3.5-1.4-6.8-.9-14,.3-5.2.7-9.4.9-9.4A50,50,0,0,1,821.4,471.73ZM72.2,488.83c-.2,5.9-.7,8.5-1.3,7.5a8.63,8.63,0,0,1-.9-3.9,5.73,5.73,0,0,0-1-3.6c-.8-.8-3.1-16.5-2.9-20.4,0-.8,1.5,1.4,3.2,5C72.3,479.53,72.5,480.53,72.2,488.83Zm263.8,1.3,2.2,5.2-3.8,4.5q-3.75,4.65-4.8,3.6c-1.4-1.4-5.3-1.3-5.8.2-.2.6-1.2-1-2.2-3.6-1.9-5.1-1.6-9.7,2.1-25l1.6-7,4.3,8.5C331.9,481.13,334.8,487.23,336,490.13Zm140-16.7c-.6,2.3-1.4,4-1.6,3.7s0-2.4.7-4.6C476.7,467.13,477.5,467.93,476,473.43Zm-380.4,1.7-1.5,2.8-.1-2.7a17.12,17.12,0,0,1,.6-4.3c.6-1.6.8-1.6,1.6-.1C96.8,471.83,96.6,473.33,95.6,475.13Zm11.4.1c0,2.8-.3,3.3-1,2.2-1.3-2-1.3-7.3,0-6.5C106.6,471.23,107,473.23,107,475.23Zm1109.5.6a30.59,30.59,0,0,1-.7,10.2l-1.3,5.9-.6-6.5C1212.8,473.53,1215,465.53,1216.5,475.83Zm-453.4,3.9c-.8.8-1.1-.2-1-3.9l.1-4.9,1,3.8C763.9,477.53,763.9,478.93,763.1,479.73Zm383.6-3.6c-.3,1-.5.2-.5-1.7s.2-2.7.5-1.8A10.28,10.28,0,0,1,1146.7,476.13ZM164,480.83a13,13,0,0,1-1.5,4.6c-1.3,2.4-1.4,2.1-1.4-4,0-5.9.1-6.3,1.4-4.6A8.24,8.24,0,0,1,164,480.83Zm680.5-3.4c.3.5.1,1-.4,1a1.1,1.1,0,0,1-1.1-1c0-.6.2-1,.4-1S844.2,476.83,844.5,477.43Zm-559.4,10.1c4,18.2,4.3,21.5,1.4,14.6-2.5-6-5.6-20-5-22.5.3-1.3.8-2.2,1.1-2S283.9,482.33,285.1,487.53Zm89.3.9c.4,2.6.3,3-.3,1.5-.9-1.9-1-1.8-1.1.5-.3,3.8-1.9-4.5-1.8-9.5v-4l1.3,4C373.2,483.13,374,486.53,374.4,488.43Zm98.2-4.3c-1.1,1.1-1.7-.4-.9-2.3s.8-1.8,1.1-.1A3.44,3.44,0,0,1,472.6,484.13Zm626.1,1c-1.4,3.1-1.9,2.4-1.1-1.6.4-2.1,1-2.8,1.4-2S1099.3,483.83,1098.7,485.13Zm-757.4.5c.9,2.1,1.4,3.8,1.1,3.8-.5,0-3.4-6.4-3.4-7.6S339.7,481.83,341.3,485.63Zm-237.4-.2c1.1,2.4,1.1,2.4-.3.6-2.3-2.9-2-.7,1.2,7.6,1.9,4.8,2.6,8.1,2.1,9.3s-.8,1.4-.8.7c-.1-1-1.4-1.3-4.8-1-3.7.2-4.9.7-5.5,2.3s-.6,1.6-.7-.6c-.1-3.5,6.5-22.9,7.4-21.6A17.66,17.66,0,0,1,103.9,485.43Zm544.7,2.5a52,52,0,0,1-3.7,9.5c-2,3.9-2.4,4.2-2.7,2.2s6.7-17.6,7.5-16.8A33,33,0,0,1,648.6,487.93Zm360.5,4.8c-.8.8-1.1-.4-1-4.4l.1-5.4,1,4.4C1009.9,490.33,1009.8,492,1009.1,492.73Zm-647.7,1.2c.5,6.4.3,8.5-.9,10-1.2,1.7-1.4,1.7-.9.2.3-.9.1-1.7-.5-1.7-1.4,0-1.4-6.8,0-12.6a15.17,15.17,0,0,1,1.4-4.2C360.6,485.83,361,489.53,361.4,493.93Zm52.6,6.7c-1,2.9-1.9,4.5-1.9,3.5s-.7-1.6-1.3-1.5c-1.5.3-1.8-11.4-.5-14.7.8-1.8,1.2-1.4,3.3,2.7l2.3,4.6Zm319-4.9c-1.7,5.7-2.2,3.9-.8-2.9.9-4,1.4-5.1,1.6-3.4A16.93,16.93,0,0,1,733,495.73Zm-340-1.9c-.5,1.5-1.4,2.4-2,2.1-1.5-.9-1.2-2.7.7-5.5,1.4-1.9,1.8-2.1,2.1-.9A11.27,11.27,0,0,1,393,493.83Zm271.1.3c-1.1,2.1-2,3.5-2.1,3.1,0-1.2,3.3-7.8,3.8-7.4C666,490,665.2,491.93,664.1,494.13Zm32.6-2.5c-.3.8-.6.5-.6-.6s.2-1.7.5-1.3A2,2,0,0,1,696.7,491.63Zm-218.5,10a1.36,1.36,0,0,1-1.8,1.1c-1.5-.6-2-9.3-.7-10.7C476.7,491.13,478.8,499.33,478.2,501.63Zm133.8-6.8c-1.4,1.4-2.4,0-1.6-2.1.6-1.5.8-1.5,1.6-.3A1.93,1.93,0,0,1,612,494.83Zm-238.3.8c-.3.8-.6.5-.6-.6s.2-1.7.5-1.3A2,2,0,0,1,373.7,495.63Zm-305,1c-.3.8-.6.5-.6-.6s.2-1.7.5-1.3A2,2,0,0,1,68.7,496.63Zm119.8,3.5c.5,2.8.4,3.2-.9,2.7-1.1-.4-1.6-1.9-1.6-4.8C186.1,493.53,187.3,494.53,188.5,500.13Zm728.2-1c-.3,1-.5.2-.5-1.7s.2-2.7.5-1.8A10.28,10.28,0,0,1,916.7,499.13Zm-120.8,2.5c.1,1.5-.3,3-.9,3.3s-1-1.4-.9-4.7c0-3.9.3-4.8.9-3.3A13.56,13.56,0,0,1,795.9,501.63Zm71.2.3c1.1,2.2,1.4,3.2.6,2.2-1.7-2-3.3-2.2-4-.5-.3.7-.6-1-.6-3.7C863,494.53,863.5,494.73,867.1,501.93Zm113.6,1.7c-.3.7-.5.2-.5-1.2s.2-1.9.5-1.3A5.28,5.28,0,0,1,980.7,503.63Zm-211,2.5c-.3,1-.5.2-.5-1.7s.2-2.7.5-1.8A10.28,10.28,0,0,1,769.7,506.13Zm-81.6-1.4c-1,.9-1.1.8-.5-.6.3-1,.9-1.5,1.2-1.2S688.8,504,688.1,504.73Zm588,7.4c-1.1,2.1-2,3.5-2.1,3.1,0-1.2,3.3-7.8,3.8-7.4C1278,508,1277.2,509.93,1276.1,512.13Zm-1236.4.5c-.3.8-.6.5-.6-.6s.2-1.7.5-1.3A2,2,0,0,1,39.7,512.63Zm-30,35c-.3.8-.6.5-.6-.6s.2-1.7.5-1.3A2,2,0,0,1,9.7,547.63ZM1273,606.33a4.14,4.14,0,0,1-.7,2.5c-.4.4-.6,4.5-.4,9.1.2,5.6-.1,8.5-.8,8.5a1.39,1.39,0,0,1-1.2-1.3c0-.6-.3-2.3-.5-3.7-1.2-6.1-1.6-12.5-.9-16.8l.7-4.7,1.9,2.4A8.92,8.92,0,0,1,1273,606.33Zm-16.6,24.8a43.82,43.82,0,0,1-2.1,7.3c-.8,2.2-1.2,2.6-.9,1,.3-1.4.8-4.2,1.1-6.3.6-2.8.4-3.7-.6-3.7s-1.1-.2.1-1C1256.6,626.73,1257.1,627.33,1256.4,631.13Zm11.5,7.8v2l-.9-2a18.87,18.87,0,0,1-.8-6v-4l.9,4A47.71,47.71,0,0,1,1267.9,638.93Z" transform="translate(0 -369.96)" fill="#d84797"/><path d="M1279.1,441c0,1.1.3,1.4.6.6a2,2,0,0,0-.1-1.9C1279.3,439.33,1279,439.93,1279.1,441Z" transform="translate(0 -369.96)" fill="#d84797"/></svg>