<svg data-name="Layer 1" xmlns="http://www.w3.org/2000/svg" width="257.2" height="48.42">
<path d="M47.6 2.69a1.51 1.51 0 01.9 2.3 1.62 1.62 0 01-1.6 1.1 1.27 1.27 0 01-.6-.1 31.75 31.75 0 00-7.5-1.8l-16.3-.3a25.72 25.72 0 00-.5 4l1.5 29.7c.5 3.2 1.1 5 1.5 5.5a1.6 1.6 0 01.1 2.5 1.49 1.49 0 01-1.3.6 1.37 1.37 0 01-1.1-.4c-1.1-1-2.1-3.7-2.8-8.2-.5-3.4-1-7.9-1.3-13.4s-.4-10-.3-13.6a41.56 41.56 0 01.6-6.7H18l-5 .3c-1.7.1-3.1.3-4.4.4s-2.4.2-3.4.3-1.8.2-2.3.3l-.9.1a2 2 0 01-1.3-.4 1.64 1.64 0 01-.7-1.1 2 2 0 01.4-1.3 1.9 1.9 0 011.1-.7l.5-.1a11.48 11.48 0 001.4-.2 18 18 0 002.2-.2c.8-.1 1.7-.2 2.8-.3l3.3-.3c1.1-.1 2.4-.2 3.7-.3s2.7-.2 4-.2c13.1-.6 22.5.2 28.2 2.5z" fill="#d75727"/><path d="M32.6 2.19a4.29 4.29 0 011.7.6 7.55 7.55 0 011.4 1.1c.4.4.5.7.4.9-.7 2.1-1.2 6.4-1.5 12.8a150.11 150.11 0 00.4 17.6 17.38 17.38 0 013.6-4.7 6.38 6.38 0 014-1.7 7.72 7.72 0 011.5.2h.2a6.7 6.7 0 012.1 1 5.54 5.54 0 011.4 1.3 11.94 11.94 0 01.8 1.6 32.9 32.9 0 01.6 3.6 33 33 0 00.6 3.9 4.92 4.92 0 001.3 2.5l.1.1c.4.4.6.7.6 1s-.2.4-.6.4a4.6 4.6 0 01-2.9-1.4 9.79 9.79 0 01-2.5-4.3 17.08 17.08 0 01-.6-4.1 12.41 12.41 0 00-.3-2.7 6.37 6.37 0 00-2.3 1.2 15.51 15.51 0 00-3.4 4.5 25.31 25.31 0 00-1.6 3.3 25.25 25.25 0 00-1 2.8l-.3 1a.6.6 0 01-.6.3 2.42 2.42 0 01-1.3-.4 13 13 0 01-1.5-1c-.4-.4-.7-.7-.7-1a145.92 145.92 0 01-1.5-27.1c.3-6.4.8-10.8 1.5-13-.1-.2.1-.3.4-.3zM57.4 29.09a7.22 7.22 0 013.9 1.3 10.84 10.84 0 013.2 3.2l.1.1c.9 1.7 0 2.6-2.6 2.8h-.8a12.22 12.22 0 01-2.2-.3c-.9-.2-1.7-.4-2.3-.6a6.9 6.9 0 00-.6 2.6 6 6 0 00.8 3.8.44.44 0 00.3.1h.6a9.85 9.85 0 003.2-.8 13.85 13.85 0 003.3-2 6 6 0 002.1-2.2.85.85 0 01.6-.2 4 4 0 012 .7 3.23 3.23 0 011.2 1.1.85.85 0 01.2.9 12.58 12.58 0 01-5.9 4.4 10 10 0 01-3.9.9h-.5a12.9 12.9 0 01-3.1-.8 10.33 10.33 0 01-3.4-2.5c-.1-.1-.1-.1-.1-.2a7.21 7.21 0 01-1.5-5.4 8.51 8.51 0 011.6-4.7c1.1-1.6 2.3-2.4 3.7-2.4h.1zm.9 4.6h.6a2.7 2.7 0 001.5-.4c.3-.3.4-.5.3-.8a2.09 2.09 0 00-.4-.6 4.14 4.14 0 00-2.6 1.8zM126.5 2.69a1.51 1.51 0 01.9 2.3 1.62 1.62 0 01-1.6 1.1 1.27 1.27 0 01-.6-.1 31.75 31.75 0 00-7.5-1.8l-16.3-.3a25.72 25.72 0 00-.5 4l1.5 29.7c.5 3.2 1.1 5 1.5 5.5a1.6 1.6 0 01.1 2.5 1.49 1.49 0 01-1.3.6 1.37 1.37 0 01-1.1-.4c-1.1-1-2.1-3.7-2.8-8.2-.5-3.4-1-7.9-1.3-13.4s-.4-10-.3-13.6a41.56 41.56 0 01.6-6.7h-.9l-5 .3c-1.7.1-3.1.3-4.4.4s-2.4.2-3.4.3-1.8.2-2.3.3l-.8.1a1.52 1.52 0 01-1.3-.3 1.9 1.9 0 01-.7-1.1 2 2 0 01.4-1.3 1.9 1.9 0 011.1-.7l.5-.1a11.48 11.48 0 001.4-.2 21.11 21.11 0 002.1-.3c.8-.1 1.7-.2 2.8-.3l3.3-.3c1.1-.1 2.4-.2 3.7-.3s2.7-.2 4-.2c13.1-.6 22.5.2 28.2 2.5z" fill="#d75727"/><path d="M111.5 2.19a4.29 4.29 0 011.7.6 7.55 7.55 0 011.4 1.1c.4.4.5.7.4.9-.7 2.1-1.2 6.4-1.5 12.8a150.11 150.11 0 00.4 17.6 17.38 17.38 0 013.6-4.7 6.38 6.38 0 014-1.7 7.72 7.72 0 011.5.2h.2a6.7 6.7 0 012.1 1 5.54 5.54 0 011.4 1.3 11.94 11.94 0 01.8 1.6 32.9 32.9 0 01.6 3.6 33 33 0 00.6 3.9 4.92 4.92 0 001.3 2.5l.1.1c.4.4.6.7.6 1s-.2.4-.6.4a4.6 4.6 0 01-2.9-1.4 9.79 9.79 0 01-2.5-4.3 17.08 17.08 0 01-.6-4.1 12.41 12.41 0 00-.3-2.7 6.37 6.37 0 00-2.3 1.2 15.51 15.51 0 00-3.4 4.5 25.31 25.31 0 00-1.6 3.3 25.25 25.25 0 00-1 2.8l-.3 1a.6.6 0 01-.6.3 2.42 2.42 0 01-1.3-.4 13 13 0 01-1.5-1c-.4-.4-.7-.7-.7-1a145.92 145.92 0 01-1.5-27.1c.3-6.4.8-10.8 1.5-13-.1-.2.1-.3.4-.3zM132.5 30.09a5.27 5.27 0 011.5.5 5.6 5.6 0 011.5 1 1.35 1.35 0 01.5 1c-.1 1.4-.1 3-.1 4.8a30.65 30.65 0 00.7 7.1l.1.1q.15.6-.6.6a2.61 2.61 0 01-1.1-.3 3.83 3.83 0 01-2.4-2 27.19 27.19 0 01-.8-7.6l.1-4.8c.1-.3.2-.4.6-.4zm1.3-5.1a1.57 1.57 0 011.3.7 1.9 1.9 0 01-.1 2.7 1.35 1.35 0 01-1.2.5 1.91 1.91 0 01-1.2-.7 2.41 2.41 0 01-.4-1.5 1.9 1.9 0 01.5-1.3 2.46 2.46 0 011.1-.4zM142.5 29.49a5.16 5.16 0 011.1.2 3.82 3.82 0 011.8.9 9.83 9.83 0 011.5 1.2 2.38 2.38 0 01.6 1.1 3.09 3.09 0 01.2.8c0 .3.1.7.1 1.2s-.5.6-1.6.2a4.38 4.38 0 01-2.5-2q-.15 0-.3.3a4.35 4.35 0 00-1.3 1.8 4.51 4.51 0 00-.1 1.3 1.69 1.69 0 01.5.2 3.33 3.33 0 01.6.3 11.69 11.69 0 013.5 2.4 3.83 3.83 0 011 2.9v.1a3.85 3.85 0 01-3.3 2.7 8.51 8.51 0 01-2.6-.5 11.78 11.78 0 01-1.9-1.1 2.72 2.72 0 01-1.1-1.4v-.1a3.75 3.75 0 010-1.5l.1-.8c.1-.4.5-.4 1.4-.1a4 4 0 012.6 2 3.22 3.22 0 00.8-1.3 2.79 2.79 0 00-.1-1h-.1l-.4-.2a6.31 6.31 0 01-.9-.4 9.25 9.25 0 01-1-.5 7.18 7.18 0 01-2-1.4 2.78 2.78 0 01-.9-1.4 2.54 2.54 0 010-2.4 6.85 6.85 0 011.5-2.1 5.75 5.75 0 012.2-1.3h.3a.37.37 0 01.3-.1zM204.1 2.69a1.51 1.51 0 01.9 2.3 1.62 1.62 0 01-1.6 1.1 1.27 1.27 0 01-.6-.1 31.75 31.75 0 00-7.5-1.8l-16.2-.3a25.72 25.72 0 00-.5 4l1.5 29.7c.5 3.2 1.1 5 1.5 5.5a1.6 1.6 0 01.1 2.5 1.49 1.49 0 01-1.3.6 1.37 1.37 0 01-1.1-.4c-1.1-1-2.1-3.7-2.8-8.2-.5-3.4-1-7.9-1.3-13.4s-.4-10-.3-13.6a41.56 41.56 0 01.6-6.7h-.9l-5 .3c-1.7.1-3.1.3-4.4.4s-2.4.2-3.4.3-1.8.2-2.3.3l-.8.1a1.52 1.52 0 01-1.3-.3 1.9 1.9 0 01-.7-1.1 2 2 0 01.4-1.3 1.9 1.9 0 011.1-.7l.5-.1a11.48 11.48 0 001.4-.2 21.11 21.11 0 002.1-.3c.8-.1 1.7-.2 2.8-.3l3.3-.3c1.1-.1 2.4-.2 3.7-.3s2.7-.2 4-.2c13.1-.6 22.5.2 28.1 2.5z" fill="#d75727"/><path d="M189.2 2.19a4.29 4.29 0 011.7.6 7.55 7.55 0 011.4 1.1c.4.4.5.7.4.9-.7 2.1-1.2 6.4-1.5 12.8a150.11 150.11 0 00.4 17.6 17.38 17.38 0 013.6-4.7 6.38 6.38 0 014-1.7 7.72 7.72 0 011.5.2h.2a6.7 6.7 0 012.1 1 5.54 5.54 0 011.4 1.3 11.94 11.94 0 01.8 1.6 32.9 32.9 0 01.6 3.6 33 33 0 00.6 3.9 4.92 4.92 0 001.3 2.5l.1.1c.4.4.6.7.6 1s-.2.4-.6.4a4.6 4.6 0 01-2.9-1.4 9.79 9.79 0 01-2.5-4.3 17.08 17.08 0 01-.6-4.1 12.41 12.41 0 00-.3-2.7 6.37 6.37 0 00-2.3 1.2 15.51 15.51 0 00-3.4 4.5 25.31 25.31 0 00-1.6 3.3 25.25 25.25 0 00-1 2.8l-.3 1a.6.6 0 01-.6.3 2.42 2.42 0 01-1.3-.4 13 13 0 01-1.5-1c-.4-.4-.7-.7-.7-1a145.92 145.92 0 01-1.5-27.1c.3-6.4.8-10.8 1.5-13-.1-.2.1-.3.4-.3zM216 30.09a10 10 0 011.6.2 4.66 4.66 0 012.3 1.2l.2-.2c.1-.1.1-.2.2-.2.3-.3.4-.4.6-.4a1.93 1.93 0 011.5 0 2.3 2.3 0 01.9.3 4.64 4.64 0 011.8 1.5 1.54 1.54 0 01.4.6 5.07 5.07 0 01.2.9c0 .2.1.9.1 2.1a48.34 48.34 0 00.2 5.2 1.69 1.69 0 00.2.5 1.09 1.09 0 01.1.5 6.3 6.3 0 001.3-.3 22.41 22.41 0 004.4-2.2c.5-.4 1.4-.1 2.7.8.5.4.9.7 1 1.1s.2.6 0 .7a27.7 27.7 0 01-4.6 2.3 8 8 0 01-3.7.3 11.71 11.71 0 01-2.8-1.3 9 9 0 01-1.7-1.7 5.38 5.38 0 01-.9-2.6c0-.2-.1-.4-.1-.7a1.21 1.21 0 00-.1-.5c-.2.4-.4.8-.6 1.3a17.2 17.2 0 01-3 4.3 5.61 5.61 0 01-2 1.2 6.41 6.41 0 01-3.3-.3c-.3-.1-.6-.3-.9-.4a6.48 6.48 0 01-1.8-1.6 2.38 2.38 0 01-.6-1.1 4 4 0 01-.4-2 11.79 11.79 0 011.1-4.4 11.39 11.39 0 012.8-3.8 4.29 4.29 0 012.9-1.3zm3.1 3a5.28 5.28 0 00-2.4 1 9.45 9.45 0 00-2.6 3.5 9.4 9.4 0 00-1 4v.4a3.13 3.13 0 001.1-.8 13.54 13.54 0 002.9-4.1 19 19 0 001.1-2.1 11.6 11.6 0 01.9-1.9zM242.2 5.19a4.12 4.12 0 011.5.4 7.1 7.1 0 011.4 1c.4.4.5.7.4.9-.3 1.6-.5 3.6-.8 6.1a62.16 62.16 0 019.3.6h.1a5.2 5.2 0 012.8 1.6c.3.4.4.7.2.9s-.5.3-1 .2a66.81 66.81 0 00-11.8-.4q-.3 2.1-.6 5.4c-.9 10.5-1 17.8-.1 21.9a3.8 3.8 0 00.6 1.8 8.33 8.33 0 001.5-.4 12.75 12.75 0 003.4-2.3 18.83 18.83 0 002.8-3v-.1c.4-.5 1.2-.3 2.5.4a3.06 3.06 0 011.2 1 .85.85 0 01.2.9 20.45 20.45 0 01-2.9 3.2 16.09 16.09 0 01-3.7 2.5 18.87 18.87 0 01-2.1.6 6.1 6.1 0 01-3.2-.6 7.71 7.71 0 01-2.1-1.4 6.89 6.89 0 01-1.1-1.3 7.82 7.82 0 01-1.1-2.8c-.8-4.3-.8-11.6.1-22.2.2-1.5.3-2.6.4-3.3a3.42 3.42 0 00-1.1.1 80.26 80.26 0 00-15.3 2h-.1a3.29 3.29 0 01-2.8-1.1 2.34 2.34 0 01-.7-.7.73.73 0 01-.2-.6c0-.2.2-.3.4-.3 3.1-.9 8.4-1.6 15.7-2.1.5 0 1.4 0 2.5-.1h1.8l1.1-8.2c.2-.5.4-.6.8-.6z" fill="#d75727"/>
</svg>