
<svg data-name="Layer 1" xmlns="http://www.w3.org/2000/svg" width="267.56" height="50.04"><path d="M49.26 2.76a1.68 1.68 0 011 2.42 1.68 1.68 0 01-1.7 1.11 2.09 2.09 0 01-.65-.13 31.83 31.83 0 00-7.79-1.83L23.3 3.99a30.82 30.82 0 00-.52 4.2l1.58 30.74q.84 5 1.56 5.69a1.68 1.68 0 01.14 2.61 1.63 1.63 0 01-1.38.59 1.55 1.55 0 01-1.17-.46q-1.77-1.5-2.88-8.49-.85-5.31-1.38-13.88t-.27-14.11a56.23 56.23 0 01.59-6.89h-1c-1.69.09-3.42.21-5.16.36l-4.54.43-3.5.36c-1 .11-1.86.2-2.42.29l-.85.07a1.71 1.71 0 01-1.32-.37 1.9 1.9 0 01-.77-1.14 2 2 0 01.4-1.38 1.93 1.93 0 011.18-.72l.53-.06 1.47-.16 2.19-.32c.83-.11 1.8-.22 2.92-.33l3.4-.29 3.84-.29c1.42-.11 2.8-.18 4.15-.23q20.42-.97 29.17 2.55z" fill="#d75828"/><path d="M33.78 2.3a4.62 4.62 0 011.77.59 6.41 6.41 0 011.38 1.1c.37.42.52.73.43 1q-1.11 3.27-1.5 13.27a150.2 150.2 0 00.45 18.25 16.9 16.9 0 013.72-4.84 5.81 5.81 0 015.69-1.57h.21a6.41 6.41 0 012.23 1 5.23 5.23 0 012.22 3.08 24.55 24.55 0 01.59 3.81 25.48 25.48 0 00.59 4 5.59 5.59 0 001.3 2.61l.07.07a1.62 1.62 0 01.59 1c0 .28-.2.43-.59.43a4.59 4.59 0 01-3-1.44 9.81 9.81 0 01-2.55-4.45 24.24 24.24 0 01-.65-4.25 22.19 22.19 0 00-.33-2.81 6 6 0 00-2.42 1.25 16.56 16.56 0 00-3.54 4.59 26.77 26.77 0 00-1.66 3.39q-.77 1.83-1.08 2.88l-.33 1a.56.56 0 01-.59.33 3.28 3.28 0 01-1.37-.39 5.53 5.53 0 01-1.5-1 2 2 0 01-.72-1.08 152 152 0 01-1.58-28q.39-10 1.57-13.47a.55.55 0 01.6-.35zM59.47 30.17a7.33 7.33 0 014 1.37 11.08 11.08 0 013.31 3.34.2.2 0 01.06.13q1.38 2.61-2.68 2.86H63.31a15.89 15.89 0 01-2.29-.26 12.55 12.55 0 01-2.41-.62 8.93 8.93 0 00-.66 2.68 6.18 6.18 0 00.83 3.95.49.49 0 00.26.1 1.84 1.84 0 00.33 0h.41a9.61 9.61 0 003.33-.8 15.21 15.21 0 003.47-2.06 9.17 9.17 0 002.2-2.22.83.83 0 01.59-.2 5.19 5.19 0 013.3 1.83c.28.39.36.7.23.92a13.32 13.32 0 01-6.12 4.58 10.33 10.33 0 01-4 .91h-.59a10 10 0 01-3.21-.85 10.86 10.86 0 01-3.53-2.55c-.08-.09-.13-.15-.13-.2a7.72 7.72 0 01-1.54-5.55 9 9 0 011.7-4.91 4.84 4.84 0 013.86-2.48zm.92 4.82h.58a2.81 2.81 0 001.54-.46c.33-.26.45-.53.36-.8a2.56 2.56 0 00-.46-.58 4 4 0 00-2.63 1.84zM130.93 2.76a1.68 1.68 0 011 2.42 1.68 1.68 0 01-1.7 1.11 2.09 2.09 0 01-.65-.13 31.94 31.94 0 00-7.8-1.83l-16.81-.34a29.31 29.31 0 00-.53 4.18l1.58 30.74q.84 5 1.56 5.69a1.68 1.68 0 01.13 2.61 1.6 1.6 0 01-1.37.59 1.55 1.55 0 01-1.17-.46q-1.77-1.5-2.88-8.49-.86-5.31-1.38-13.86t-.26-14.13a54.28 54.28 0 01.59-6.87h-1c-1.71.09-3.43.21-5.17.36l-4.54.43-3.5.36c-1 .11-1.86.2-2.42.29l-.83.03a1.71 1.71 0 01-1.38-.33 1.93 1.93 0 01-.72-1.14 1.89 1.89 0 01.4-1.37 1.86 1.86 0 011.18-.72l.52-.11 1.47-.16c.63-.06 1.36-.15 2.19-.26s1.8-.22 2.92-.33 2.24-.21 3.4-.29L97.6.44c1.42-.11 2.8-.18 4.16-.23q20.41-.97 29.17 2.55z" fill="#d75828"/><path d="M115.43 2.3a4.62 4.62 0 011.77.59 6.41 6.41 0 011.4 1.1c.37.42.51.73.43 1q-1.11 3.27-1.51 13.27a152.26 152.26 0 00.46 18.25 16.9 16.9 0 013.72-4.84 6.51 6.51 0 014.13-1.76 6.44 6.44 0 011.57.2h.19a6.43 6.43 0 012.23 1 5.17 5.17 0 012.22 3.07 24.75 24.75 0 01.59 3.73 25.48 25.48 0 00.59 4 5.59 5.59 0 001.31 2.62l.06.06a1.62 1.62 0 01.59 1c0 .29-.2.43-.59.43a4.59 4.59 0 01-3-1.44 9.76 9.76 0 01-2.55-4.45 24.27 24.27 0 01-.65-4.24 22 22 0 00-.33-2.81 6 6 0 00-2.42 1.24 16.71 16.71 0 00-3.54 4.67 28 28 0 00-1.67 3.39q-.75 1.83-1.08 2.88l-.32 1a.58.58 0 01-.59.33 3.28 3.28 0 01-1.37-.39 5.58 5.58 0 01-1.51-1 2.14 2.14 0 01-.72-1.08 152.92 152.92 0 01-1.57-28q.41-10 1.57-13.47a.56.56 0 01.59-.35zM141.13 30.17a7.33 7.33 0 014 1.37 11.08 11.08 0 013.34 3.34.2.2 0 01.06.13c.92 1.74 0 2.7-2.68 2.87h-.39a3.55 3.55 0 01-.46 0 16.05 16.05 0 01-2.29-.26 13 13 0 01-2.42-.66 9.22 9.22 0 00-.65 2.68 6.12 6.12 0 00.85 3.93.51.51 0 00.26.09h.66a9.61 9.61 0 003.33-.8 15.23 15.23 0 003.45-2.06 9.24 9.24 0 002.23-2.25.75.75 0 01.59-.2 5.19 5.19 0 013.3 1.83c.28.39.36.7.23.92a13.29 13.29 0 01-6.08 4.57 10.38 10.38 0 01-4 .92h-.58a10 10 0 01-3.21-.85 10.75 10.75 0 01-3.53-2.55c-.08-.09-.13-.15-.13-.2a7.72 7.72 0 01-1.57-5.55 8.84 8.84 0 011.7-4.91 4.84 4.84 0 013.86-2.48zm.92 4.78h.58a2.81 2.81 0 001.54-.46c.33-.26.44-.53.36-.8a2.56 2.56 0 00-.46-.58 4 4 0 00-2.68 1.88zM212.6 2.76a1.68 1.68 0 011 2.42 1.69 1.69 0 01-1.7 1.11 2.15 2.15 0 01-.66-.13 31.73 31.73 0 00-7.78-1.83l-16.82-.34a29.31 29.31 0 00-.53 4.18l1.58 30.74q.84 5 1.56 5.69a1.68 1.68 0 01.13 2.61 1.82 1.82 0 01-2.55.13q-1.76-1.5-2.87-8.49-.85-5.31-1.38-13.86t-.26-14.13a54.28 54.28 0 01.59-6.87h-1c-1.7.09-3.43.21-5.17.36l-4.55.43-3.49.36c-1.05.11-1.86.2-2.42.29l-.85.07a1.71 1.71 0 01-1.38-.33 1.89 1.89 0 01-.7-1.18 1.89 1.89 0 01.4-1.37 1.84 1.84 0 011.17-.72l.54-.07 1.47-.16c.63-.06 1.36-.15 2.19-.26s1.8-.22 2.92-.33 2.24-.21 3.4-.29l3.84-.31c1.42-.11 2.8-.18 4.15-.23q20.42-1.01 29.17 2.51z" fill="#d75828"/><path d="M197.1 2.3a4.62 4.62 0 011.77.59 6.41 6.41 0 011.4 1.1c.37.42.51.73.43 1q-1.12 3.27-1.51 13.27a152.26 152.26 0 00.46 18.25 16.9 16.9 0 013.72-4.84 5.85 5.85 0 015.7-1.56h.19a6.43 6.43 0 012.23 1 6.24 6.24 0 011.44 1.37 5.86 5.86 0 01.79 1.7 24.75 24.75 0 01.59 3.73 25.48 25.48 0 00.59 4 5.59 5.59 0 001.31 2.62l.06.06a1.62 1.62 0 01.59 1c0 .29-.2.43-.59.43a4.59 4.59 0 01-3-1.44 10 10 0 01-2.55-4.45 26.32 26.32 0 01-.65-4.24 22 22 0 00-.33-2.81 6.07 6.07 0 00-2.42 1.24 16.9 16.9 0 00-3.54 4.67 28.11 28.11 0 00-1.68 3.39q-.75 1.83-1.08 2.88l-.32 1a.58.58 0 01-.59.33 3.28 3.28 0 01-1.37-.39 5.58 5.58 0 01-1.51-1 2 2 0 01-.72-1.08 152.92 152.92 0 01-1.57-28q.41-10 1.57-13.47a.56.56 0 01.59-.35zM224.89 31.21a8.25 8.25 0 011.64.19 5.53 5.53 0 012.41 1.25l.2-.23a2.2 2.2 0 01.2-.23 1.78 1.78 0 01.59-.46 2.27 2.27 0 011.5 0 7.62 7.62 0 01.91.33 5.77 5.77 0 011.9 1.5 2 2 0 01.39.65 3.35 3.35 0 01.2 1 18.24 18.24 0 01.06 2.22 44.23 44.23 0 00.2 5.36c0 .13.1.32.16.56a2 2 0 01.1.49 8 8 0 001.38-.27 20.37 20.37 0 004.51-2.29c.53-.39 1.47-.11 2.81.85a3.71 3.71 0 011.08 1.15c.19.37.18.62 0 .75a26 26 0 01-4.77 2.42 7.22 7.22 0 01-3.8.26 9.37 9.37 0 01-2.87-1.37 8.25 8.25 0 01-1.77-1.77 5.8 5.8 0 01-1-2.68 5.86 5.86 0 01-.13-.75c-.05-.32-.07-.51-.07-.55a8.76 8.76 0 01-.65 1.3 17.05 17.05 0 01-3.14 4.45 5.1 5.1 0 01-2 1.24 6.51 6.51 0 01-3.47-.32 9.86 9.86 0 01-.92-.46 6.45 6.45 0 01-1.89-1.64 3.89 3.89 0 01-.66-1.11 5 5 0 01-.39-2.09 11.53 11.53 0 011.11-4.51 11 11 0 013-3.92 5.19 5.19 0 013.18-1.32zm3.13 3a6.69 6.69 0 00-2.49 1.05 10.45 10.45 0 00-2.68 3.6 10 10 0 00-1 4.18v.46a2.81 2.81 0 001.11-.85 15.1 15.1 0 003-4.25q.45-.79 1.14-2.22c.43-.95.74-1.61.92-1.97zM252.03 5.38a4.32 4.32 0 011.56.46 6 6 0 011.44 1c.4.39.55.72.46 1-.26 1.66-.55 3.75-.85 6.28a69.6 69.6 0 019.68.59h.06a4.58 4.58 0 012.88 1.7c.31.39.38.7.23.91s-.49.29-1 .2a73.7 73.7 0 00-12.23-.46c-.18 1.44-.37 3.29-.59 5.56q-1.44 16.29-.13 22.69a4.74 4.74 0 00.59 1.83 5.66 5.66 0 001.5-.46 13.47 13.47 0 003.57-2.35 20.19 20.19 0 002.92-3.07v-.07c.39-.48 1.24-.32 2.55.46a3.79 3.79 0 011.27 1c.29.39.36.69.23.91a20.28 20.28 0 01-3 3.26 14.46 14.46 0 01-3.86 2.55 9.45 9.45 0 01-2.22.59 6.7 6.7 0 01-3.33-.65 8.76 8.76 0 01-2.19-1.32 5.48 5.48 0 01-1.11-1.38 6.49 6.49 0 01-1.12-2.94q-1.31-6.6.13-23c.18-1.57.31-2.7.4-3.4a6.82 6.82 0 00-1.11.06q-10.8.66-15.83 2.1h-.06a3.47 3.47 0 01-2.88-1.12 2.91 2.91 0 01-.72-.68.83.83 0 01-.2-.66.47.47 0 01.4-.36q4.83-1.36 16.28-2.15c.57 0 1.42 0 2.55-.13h1.89l1.12-8.49q.06-.46.72-.46z" fill="#d75828"/></svg>