<svg id="Layer_1" data-name="Layer 1" xmlns="http://www.w3.org/2000/svg" viewBox="0 0 199.14 35.52"><path d="M-1.49.22" transform="translate(-0.76 -1.03)" fill="none"/><path d="M-1.49.22" transform="translate(-0.76 -1.03)" fill="none"/><path d="M-1.49.22" transform="translate(-0.76 -1.03)" fill="none"/><path d="M-1.49.22" transform="translate(-0.76 -1.03)" fill="none"/><path d="M37.61,3c.85.37,1.08.88.7,1.69a1.26,1.26,0,0,1-1.24.81,1.1,1.1,0,0,1-.47-.07A25.72,25.72,0,0,0,30.8,4.1L18.18,3.88a17.5,17.5,0,0,0-.39,2.94L19,28.61a11.09,11.09,0,0,0,1.16,4,1.14,1.14,0,0,1,.08,1.84,1.18,1.18,0,0,1-1,.44,1.1,1.1,0,0,1-.85-.3c-.85-.73-1.62-2.71-2.17-6-.38-2.5-.77-5.8-1-9.83s-.31-7.34-.24-10a29.48,29.48,0,0,1,.47-4.92h-.7l-3.87.22c-1.32.08-2.4.22-3.41.3s-1.85.15-2.63.22S3.39,4.77,3,4.84l-.7.07a1.61,1.61,0,0,1-1-.29,1.17,1.17,0,0,1-.54-.81,1.4,1.4,0,0,1,.3-1,1.54,1.54,0,0,1,.86-.52l.38-.07a8.21,8.21,0,0,0,1.09-.15A15.34,15.34,0,0,0,5.09,2c.62-.08,1.32-.15,2.17-.22l2.55-.22c.86-.08,1.86-.15,2.87-.22s2.09-.15,3.1-.15C25.92.73,33.2,1.32,37.61,3Z" transform="translate(-0.76 -1.03)" fill="#d75727"/><path d="M26,2.64a3.31,3.31,0,0,1,1.31.44,5.89,5.89,0,0,1,1.09.8c.31.3.38.52.31.67-.55,1.54-.93,4.69-1.17,9.39a106.79,106.79,0,0,0,.31,12.91,12.84,12.84,0,0,1,2.79-3.45,5.08,5.08,0,0,1,3.1-1.25,6.58,6.58,0,0,1,1.16.15h.16a5.53,5.53,0,0,1,1.62.73,4.27,4.27,0,0,1,1.09,1,7.69,7.69,0,0,1,.61,1.17,23,23,0,0,1,.47,2.64,23.31,23.31,0,0,0,.46,2.86,3.67,3.67,0,0,0,1,1.84l.08.07c.31.29.46.51.46.73s-.15.3-.46.3a3.67,3.67,0,0,1-2.25-1,7,7,0,0,1-1.93-3.16,11.58,11.58,0,0,1-.47-3,8.92,8.92,0,0,0-.23-2,4.93,4.93,0,0,0-1.78.88,11.33,11.33,0,0,0-2.63,3.3A16.61,16.61,0,0,0,29.87,31a18.84,18.84,0,0,0-.78,2l-.23.74a.48.48,0,0,1-.46.22,2,2,0,0,1-1-.3A10.58,10.58,0,0,1,26.23,33c-.31-.29-.54-.51-.54-.73a101.32,101.32,0,0,1-1.16-19.89c.23-4.69.61-7.92,1.16-9.53C25.61,2.71,25.76,2.64,26,2.64Z" transform="translate(-0.76 -1.03)" fill="#d75727"/><path d="M45.2,22.37a5.84,5.84,0,0,1,3,1,8.25,8.25,0,0,1,2.48,2.34l.07.08c.7,1.24,0,1.9-2,2.05h-.62a9.52,9.52,0,0,1-1.7-.22c-.7-.15-1.32-.29-1.78-.44a4.84,4.84,0,0,0-.47,1.91,4.19,4.19,0,0,0,.62,2.79.36.36,0,0,0,.23.07h.47A7.93,7.93,0,0,0,48,31.32a10.93,10.93,0,0,0,2.55-1.47,4.58,4.58,0,0,0,1.63-1.61.67.67,0,0,1,.46-.15,3.19,3.19,0,0,1,1.55.52,2.49,2.49,0,0,1,.93.8c.23.3.23.52.15.66A9.58,9.58,0,0,1,50.7,33.3a8.14,8.14,0,0,1-3,.66h-.39a10.32,10.32,0,0,1-2.4-.58,7.87,7.87,0,0,1-2.63-1.84c-.08-.07-.08-.07-.08-.14a5.1,5.1,0,0,1-1.16-4A6,6,0,0,1,42.26,24a3.52,3.52,0,0,1,2.86-1.76h.08Zm.69,3.38h.47a2.13,2.13,0,0,0,1.16-.3c.23-.22.31-.36.23-.58a1.23,1.23,0,0,0-.31-.44,3.21,3.21,0,0,0-2,1.32Z" transform="translate(-0.76 -1.03)" fill="#d75727"/><path d="M98.7,3c.85.37,1.08.88.7,1.69a1.26,1.26,0,0,1-1.24.81,1.1,1.1,0,0,1-.47-.07,25.85,25.85,0,0,0-5.8-1.33L79.27,3.88a17.5,17.5,0,0,0-.39,2.94L80,28.61a11.09,11.09,0,0,0,1.16,4,1.14,1.14,0,0,1,.08,1.84,1.18,1.18,0,0,1-1,.44,1.1,1.1,0,0,1-.85-.3c-.85-.73-1.63-2.71-2.17-6-.38-2.5-.77-5.8-1-9.83s-.31-7.34-.24-10a29.48,29.48,0,0,1,.47-4.92h-.7l-3.87.22c-1.32.08-2.4.22-3.41.3s-1.85.15-2.63.22-1.39.15-1.78.22l-.62.07a1.21,1.21,0,0,1-1-.22,1.38,1.38,0,0,1-.54-.81,1.43,1.43,0,0,1,.31-.95,1.47,1.47,0,0,1,.85-.51l.39-.08a9.66,9.66,0,0,0,1.08-.14c.47-.08,1-.08,1.63-.22s1.32-.15,2.17-.22l2.55-.22c.86-.08,1.86-.15,2.87-.22s2.09-.15,3.1-.15C87,.73,94.29,1.32,98.7,3Z" transform="translate(-0.76 -1.03)" fill="#d75727"/><path d="M87.09,2.64a3.31,3.31,0,0,1,1.31.44,5.89,5.89,0,0,1,1.09.8c.31.3.38.52.31.67-.55,1.54-.93,4.69-1.17,9.39a106.79,106.79,0,0,0,.31,12.91,12.84,12.84,0,0,1,2.79-3.45,5.08,5.08,0,0,1,3.1-1.25A6.58,6.58,0,0,1,96,22.3h.15a5.46,5.46,0,0,1,1.63.73,4.08,4.08,0,0,1,1.08,1,7,7,0,0,1,.62,1.17,23,23,0,0,1,.47,2.64,23.31,23.31,0,0,0,.46,2.86,3.67,3.67,0,0,0,1,1.84l.08.07c.31.29.46.51.46.73s-.15.3-.46.3a3.67,3.67,0,0,1-2.25-1,7,7,0,0,1-1.93-3.16,11.58,11.58,0,0,1-.47-3,8.92,8.92,0,0,0-.23-2,4.93,4.93,0,0,0-1.78.88,11.33,11.33,0,0,0-2.63,3.3A16.61,16.61,0,0,0,91,31a18.84,18.84,0,0,0-.78,2l-.23.74a.48.48,0,0,1-.46.22,2,2,0,0,1-1-.3A10.58,10.58,0,0,1,87.32,33c-.31-.29-.54-.51-.54-.73a101.33,101.33,0,0,1-1.17-19.89c.24-4.69.62-7.92,1.17-9.53C86.7,2.71,86.85,2.64,87.09,2.64Z" transform="translate(-0.76 -1.03)" fill="#d75727"/><path d="M103.35,23.11a4.41,4.41,0,0,1,1.16.36,4.28,4.28,0,0,1,1.16.74,1,1,0,0,1,.39.73c-.08,1-.08,2.2-.08,3.52a21.5,21.5,0,0,0,.54,5.21l.08.07c.07.3-.08.44-.47.44a2.06,2.06,0,0,1-.85-.22,2.94,2.94,0,0,1-1.86-1.46,19.25,19.25,0,0,1-.62-5.58l.08-3.52C103,23.18,103,23.11,103.35,23.11Zm1-3.75a1.24,1.24,0,0,1,1,.52,1.34,1.34,0,0,1-.08,2,1.08,1.08,0,0,1-.93.37,1.53,1.53,0,0,1-.93-.52,1.71,1.71,0,0,1-.31-1.1,1.35,1.35,0,0,1,.39-.95A1.94,1.94,0,0,1,104.35,19.36Z" transform="translate(-0.76 -1.03)" fill="#d75727"/><path d="M111.09,22.67a4.4,4.4,0,0,1,.85.14,3.16,3.16,0,0,1,1.39.66,7.43,7.43,0,0,1,1.16.88,1.72,1.72,0,0,1,.47.81,2,2,0,0,1,.15.59c0,.22.08.51.08.88s-.39.44-1.24.14A3.36,3.36,0,0,1,112,25.31c-.08,0-.16.07-.24.22a3.14,3.14,0,0,0-1,1.32,3,3,0,0,0-.08.95,1.23,1.23,0,0,1,.39.15,2,2,0,0,1,.46.22,8.85,8.85,0,0,1,2.71,1.76,2.74,2.74,0,0,1,.78,2.13v.07a3,3,0,0,1-2.56,2,6.92,6.92,0,0,1-2-.37,9.38,9.38,0,0,1-1.47-.8c-.47-.37-.78-.66-.85-1v-.07a2.57,2.57,0,0,1,0-1.11l.07-.58c.08-.3.39-.3,1.09-.08a3.09,3.09,0,0,1,2,1.47,2.41,2.41,0,0,0,.62-.95,1.91,1.91,0,0,0-.08-.74h-.08l-.3-.14a5.22,5.22,0,0,1-.7-.3,8.13,8.13,0,0,1-.78-.36,5.61,5.61,0,0,1-1.54-1,2,2,0,0,1-.7-1,1.78,1.78,0,0,1,0-1.76,5.15,5.15,0,0,1,1.16-1.54,4.6,4.6,0,0,1,1.7-1h.24A.29.29,0,0,1,111.09,22.67Z" transform="translate(-0.76 -1.03)" fill="#d75727"/><path d="M158.78,3c.85.37,1.09.88.7,1.69a1.25,1.25,0,0,1-1.24.81,1.06,1.06,0,0,1-.46-.07A26,26,0,0,0,152,4.1l-12.54-.22A17.5,17.5,0,0,0,139,6.82l1.16,21.79a11.09,11.09,0,0,0,1.16,4,1.14,1.14,0,0,1,.08,1.84,1.18,1.18,0,0,1-1,.44,1.1,1.1,0,0,1-.85-.3c-.85-.73-1.62-2.71-2.17-6-.38-2.5-.77-5.8-1-9.83s-.31-7.34-.24-10a29.48,29.48,0,0,1,.47-4.92h-.7l-3.87.22c-1.32.08-2.4.22-3.41.3L126,4.62c-.77.07-1.39.15-1.78.22l-.62.07a1.21,1.21,0,0,1-1-.22,1.38,1.38,0,0,1-.54-.81,1.43,1.43,0,0,1,.31-.95,1.47,1.47,0,0,1,.85-.51l.39-.08a10.07,10.07,0,0,0,1.09-.14c.46-.08,1-.08,1.62-.22s1.32-.15,2.17-.22l2.55-.22c.86-.08,1.86-.15,2.87-.22s2.09-.15,3.1-.15C147.17.73,154.45,1.32,158.78,3Z" transform="translate(-0.76 -1.03)" fill="#d75727"/><path d="M147.25,2.64a3.31,3.31,0,0,1,1.31.44,5.89,5.89,0,0,1,1.09.8c.31.3.38.52.31.67-.55,1.54-.93,4.69-1.17,9.39a106.79,106.79,0,0,0,.31,12.91,12.84,12.84,0,0,1,2.79-3.45,5.08,5.08,0,0,1,3.1-1.25,6.58,6.58,0,0,1,1.16.15h.16a5.53,5.53,0,0,1,1.62.73A4.27,4.27,0,0,1,159,24a7.69,7.69,0,0,1,.61,1.17,23,23,0,0,1,.47,2.64,23.31,23.31,0,0,0,.46,2.86,3.67,3.67,0,0,0,1,1.84l.08.07c.31.29.46.51.46.73s-.15.3-.46.3a3.67,3.67,0,0,1-2.25-1,7,7,0,0,1-1.93-3.16,11.58,11.58,0,0,1-.47-3,8.92,8.92,0,0,0-.23-2,4.93,4.93,0,0,0-1.78.88,11.33,11.33,0,0,0-2.63,3.3A16.61,16.61,0,0,0,151.12,31a18.84,18.84,0,0,0-.78,2l-.23.74a.48.48,0,0,1-.46.22,2,2,0,0,1-1-.3,10.58,10.58,0,0,1-1.16-.73c-.31-.29-.54-.51-.54-.73a101.32,101.32,0,0,1-1.16-19.89c.23-4.69.61-7.92,1.16-9.53C146.86,2.71,147,2.64,147.25,2.64Z" transform="translate(-0.76 -1.03)" fill="#d75727"/><path d="M168,23.11a8.71,8.71,0,0,1,1.24.14,3.78,3.78,0,0,1,1.78.88l.15-.14c.08-.08.08-.15.16-.15.23-.22.31-.29.46-.29a1.54,1.54,0,0,1,1.16,0,1.78,1.78,0,0,1,.7.22,3.45,3.45,0,0,1,1.39,1.1,1.1,1.1,0,0,1,.31.44,3.34,3.34,0,0,1,.16.66c0,.14.07.66.07,1.54a32.49,32.49,0,0,0,.16,3.81,1.34,1.34,0,0,0,.15.37.74.74,0,0,1,.08.37,6,6,0,0,0,1-.22,18.44,18.44,0,0,0,3.4-1.62c.39-.29,1.09-.07,2.1.59.38.29.69.51.77.81s.15.44,0,.51a22.23,22.23,0,0,1-3.56,1.69,6.69,6.69,0,0,1-2.87.22,9.29,9.29,0,0,1-2.16-1,7,7,0,0,1-1.32-1.24,3.86,3.86,0,0,1-.7-1.91c0-.15-.08-.3-.08-.52a.87.87,0,0,0-.07-.36A10.54,10.54,0,0,0,172,30a12.59,12.59,0,0,1-2.32,3.16,4.53,4.53,0,0,1-1.55.88,5.33,5.33,0,0,1-2.55-.22c-.24-.08-.47-.22-.7-.3a4.84,4.84,0,0,1-1.39-1.17,1.67,1.67,0,0,1-.47-.81,2.79,2.79,0,0,1-.31-1.47,8.26,8.26,0,0,1,.85-3.22,8.38,8.38,0,0,1,2.17-2.79A3.39,3.39,0,0,1,168,23.11Zm2.4,2.2a4.06,4.06,0,0,0-1.86.73,7,7,0,0,0-2,2.57,6.49,6.49,0,0,0-.78,2.93v.3a2.42,2.42,0,0,0,.85-.59,10,10,0,0,0,2.25-3,14.5,14.5,0,0,0,.85-1.54A7.94,7.94,0,0,1,170.4,25.31Z" transform="translate(-0.76 -1.03)" fill="#d75727"/><path d="M188.28,4.84a3.31,3.31,0,0,1,1.16.29,5.23,5.23,0,0,1,1.09.74c.31.29.38.51.31.66-.23,1.17-.39,2.64-.62,4.47a51.2,51.2,0,0,1,7.2.44h.08a4.09,4.09,0,0,1,2.16,1.17c.24.3.31.52.16.66s-.39.23-.78.15a54.58,54.58,0,0,0-9.13-.29c-.16,1-.31,2.35-.47,4-.69,7.7-.77,13.06-.07,16.07a2.69,2.69,0,0,0,.46,1.32,6.82,6.82,0,0,0,1.16-.3,9.76,9.76,0,0,0,2.63-1.68,13.91,13.91,0,0,0,2.17-2.21v-.07c.31-.37.93-.22,1.94.29a2.31,2.31,0,0,1,.93.74c.23.29.23.51.15.66a15.43,15.43,0,0,1-2.24,2.35,12.76,12.76,0,0,1-2.87,1.83,14.47,14.47,0,0,1-1.62.44,4.94,4.94,0,0,1-2.48-.44,6,6,0,0,1-1.63-1,4.82,4.82,0,0,1-.85-1,5.48,5.48,0,0,1-.85-2c-.62-3.16-.62-8.51.08-16.29.15-1.1.23-1.91.31-2.42a3,3,0,0,0-.86.07A65.84,65.84,0,0,0,174,14.89h-.08a2.63,2.63,0,0,1-2.17-.81,1.75,1.75,0,0,1-.54-.51.53.53,0,0,1-.15-.44c0-.15.15-.22.31-.22a68.24,68.24,0,0,1,12.15-1.54c.39,0,1.09,0,1.94-.08h1.39l.85-6C187.82,4.91,188,4.84,188.28,4.84Z" transform="translate(-0.76 -1.03)" fill="#d75727"/></svg>