<?xml version="1.0" encoding="utf-8"?>
<!-- Generator: Adobe Illustrator 25.0.1, SVG Export Plug-In . SVG Version: 6.00 Build 0)  -->
<svg version="1.1" id="Layer_1" xmlns="http://www.w3.org/2000/svg" xmlns:xlink="http://www.w3.org/1999/xlink" x="0px" y="0px"
	 viewBox="0 0 1440 100" style="enable-background:new 0 0 1440 100;" xml:space="preserve">
<style type="text/css">
	.st0{fill:#FFFFFF;}
</style>
<path class="st0" d="M1367.8,34.9c23.6-19.8,56.9-16.4,72.2,1.1v64H0V34C35.7-3,78.5-4.7,127.9,21.3c49.1-20.1,80.9-13.9,116,13.7
	c25.2-5.4,35.4-2.9,48.1,8.8c35.3-23.5,73.7-18.2,117.3,13.9c31.1-11.7,46.4-11,69.7,1.5c26.4-26.7,67.3-25.7,109-2.9
	c14.3-6.9,24.5-6.9,45.9-0.8c41.6-25.2,75.9-24.5,113.1,0c30.4-22.2,62.5-21.5,99.8,0c18.3-11.2,32.2-10.5,46.5,0
	c31.4-16.5,58.5-15.3,86.6,1.8c18.7-12.8,31.6-13.3,57.6-5.3c12.4-26,41-27.1,80.2-10.2c32-32.7,72.9-35.9,119.8-18.1
	C1283.8-7.8,1334-2.8,1367.8,34.9z"/>
</svg>
